<svg xmlns="http://www.w3.org/2000/svg" xmlns:xlink="http://www.w3.org/1999/xlink" version="1.1" style="enable-background:new 0 0 477.867 477.867;" xml:space="preserve" width="477.867" height="477.867"><rect id="backgroundrect" width="100%" height="100%" x="0" y="0" fill="none" stroke="none"/>
















<g class="currentLayer" style=""><title>Layer 1</title><g id="svg_1" class="selected" fill-opacity="1" fill="#c13a3a">
	<g id="svg_2" fill="#c13a3a">
		<path d="M392.533,0h-307.2C38.228,0.056,0.056,38.228,0,85.333v307.2c0.056,47.105,38.228,85.277,85.333,85.333h307.2    c47.105-0.056,85.277-38.228,85.333-85.333v-307.2C477.81,38.228,439.638,0.056,392.533,0z M324.267,256H256v68.267    c0,9.426-7.641,17.067-17.067,17.067s-17.067-7.641-17.067-17.067V256H153.6c-9.426,0-17.067-7.641-17.067-17.067    s7.641-17.067,17.067-17.067h68.267V153.6c0-9.426,7.641-17.067,17.067-17.067S256,144.174,256,153.6v68.267h68.267    c9.426,0,17.067,7.641,17.067,17.067S333.692,256,324.267,256z" id="svg_3" fill="#c13a3a"/>
	</g>
</g><g id="svg_4">
</g><g id="svg_5">
</g><g id="svg_6">
</g><g id="svg_7">
</g><g id="svg_8">
</g><g id="svg_9">
</g><g id="svg_10">
</g><g id="svg_11">
</g><g id="svg_12">
</g><g id="svg_13">
</g><g id="svg_14">
</g><g id="svg_15">
</g><g id="svg_16">
</g><g id="svg_17">
</g><g id="svg_18">
</g></g></svg>