<svg id="SvgjsSvg1013" width="288" height="288" xmlns="http://www.w3.org/2000/svg" version="1.1" xmlns:xlink="http://www.w3.org/1999/xlink" xmlns:svgjs="http://svgjs.com/svgjs"><defs id="SvgjsDefs1014"></defs><g id="SvgjsG1015"><svg xmlns="http://www.w3.org/2000/svg" width="288" height="288" class="svg u_1659822631" data-icon-custom="true" data-icon-name="Bacon.svg" enable-background="new 0 0 200 200" viewBox="0 0 200 200"><path d="M191.749,70.625c-0.314-2.774-2.93-4.284-4.494-5.188c-3.477-2.009-7.585-1.344-11.2-0.758
		c-1.73,0.283-3.785,0.615-5.162,0.438c0.036-0.072,0.072-0.145,0.103-0.211c2.235-4.585,1.55-7.959-2.036-10.032
		c-3.479-2.004-7.584-1.34-11.199-0.755c-2.232,0.363-5.002,0.812-6.09,0.181c-0.73-0.418-1.359-2.442-1.812-3.922
		c-0.846-2.733-2.831-9.149-9.382-7.246c-10.659,3.055-12.695,7.85-14.108,13.348c-0.819,3.179-1.466,5.693-6.292,8.479
		c-6.102,3.527-11.206,4.119-16.609,4.75c-5.948,0.695-12.091,1.411-19.576,5.731c-8.031,4.636-9.557,9.004-10.783,12.515
		c-1.009,2.885-1.803,5.165-7.349,8.367c-6.098,3.519-11.197,4.117-16.601,4.742c-5.944,0.694-12.094,1.41-19.576,5.729
		c-8.771,5.068-10.762,8.259-12.994,12.916c-1.072,2.229-2.181,4.543-5.146,7.998c-0.496,0.58-0.985,1.024-1.39,1.401
		c-1.118,1.033-2.803,2.604-2.519,5.111c0.314,2.778,2.93,4.289,4.491,5.188c3.48,2.012,7.584,1.345,11.203,0.762
		c1.731-0.281,3.788-0.616,5.162-0.441c-0.036,0.072-0.069,0.146-0.103,0.212c-2.232,4.585-1.55,7.962,2.039,10.033
		c3.479,2,7.582,1.342,11.197,0.756c2.229-0.359,4.996-0.815,6.092-0.182c0.728,0.417,1.354,2.44,1.81,3.918
		c0.737,2.395,2.341,7.593,7.131,7.593c0.683,0,1.432-0.105,2.247-0.344c11.215-3.211,13.206-7.358,14.791-12.867
		c0.81-2.8,1.574-5.446,5.555-8.929c4.688-4.093,10.034-4.601,16.226-5.18c6.042-0.571,12.888-1.221,20.014-5.332
		c8.031-4.636,9.557-9.004,10.783-12.517c1.012-2.885,1.806-5.165,7.352-8.366c6.095-3.52,11.2-4.117,16.601-4.742
		c5.944-0.695,12.091-1.411,19.575-5.73c8.771-5.068,10.759-8.258,12.994-12.914c1.072-2.235,2.178-4.542,5.145-8
		c0.495-0.574,0.984-1.024,1.389-1.397C190.345,74.703,192.033,73.14,191.749,70.625z M21.995,132.535
		c-1.722,0.283-3.6,0.598-4.92,0.477c0.076-0.084,0.154-0.175,0.233-0.266c3.633-4.234,5.086-7.261,6.252-9.692
		c1.592-3.322,2.556-5.325,9.889-9.56c6.102-3.522,11.203-4.12,16.607-4.745c5.941-0.695,12.088-1.411,19.569-5.73
		c8.032-4.633,9.557-9.002,10.783-12.514c1.009-2.885,1.803-5.165,7.349-8.367c6.102-3.523,11.203-4.115,16.606-4.747
		c5.944-0.695,12.095-1.412,19.579-5.734c7.642-4.41,8.956-9.522,9.913-13.252c0.918-3.569,1.44-5.595,7.995-7.612
		c0.215,0.558,0.444,1.307,0.619,1.868c0.522,1.695,1.169,3.78,2.404,5.579c-1.936,2.383-2.615,4.913-3.178,7.092
		c-0.815,3.176-1.459,5.687-6.282,8.47c-6.116,3.529-11.228,4.13-16.637,4.765c-5.944,0.695-12.091,1.412-19.57,5.731
		c-8.013,4.629-9.536,8.989-10.762,12.493c-1.009,2.888-1.803,5.168-7.355,8.373c-6.098,3.522-11.197,4.117-16.598,4.748
		c-5.944,0.695-12.094,1.414-19.576,5.733c-8.774,5.065-10.768,8.264-13.003,12.928c-0.541,1.12-1.118,2.283-1.912,3.594
		C27.351,131.687,24.551,132.121,21.995,132.535z M35.134,143.535c0.036-0.072,0.072-0.142,0.103-0.211
		c1.245-2.553,1.547-4.719,0.985-6.503c1.22-1.922,2.005-3.54,2.664-4.905c1.595-3.332,2.562-5.341,9.898-9.575
		c6.099-3.525,11.203-4.12,16.604-4.751c5.944-0.695,12.088-1.411,19.57-5.728c8.041-4.639,9.566-9.013,10.789-12.52
		c1.006-2.88,1.8-5.157,7.328-8.347c6.095-3.523,11.199-4.12,16.601-4.75c5.953-0.699,12.105-1.42,19.605-5.747
		c7.639-4.41,8.949-9.519,9.907-13.246c0.586-2.281,0.973-3.709,2.556-5.01c2.425,0.283,4.941-0.118,7.255-0.491
		c1.498-0.242,3.214-0.506,4.543-0.465c-6.869,3.288-8.047,7.771-9.001,11.444c-0.819,3.179-1.469,5.69-6.295,8.477
		c-6.119,3.529-11.23,4.13-16.64,4.765c-5.941,0.695-12.091,1.411-19.566,5.731c-8.014,4.629-9.536,8.987-10.763,12.491
		c-1.009,2.891-1.803,5.172-7.357,8.373c-6.099,3.522-11.2,4.12-16.601,4.748c-5.944,0.695-12.088,1.414-19.573,5.733
		c-8.774,5.068-10.765,8.261-13,12.918c-0.973,2.033-2.048,4.166-4.446,7.126h-0.018C38.553,143.372,36.505,143.711,35.134,143.535z
		 M181.972,72.103c-3.631,4.232-5.083,7.26-6.252,9.691c-1.592,3.322-2.553,5.328-9.887,9.56c-6.098,3.523-11.203,4.12-16.604,4.747
		c-5.947,0.695-12.091,1.412-19.572,5.729c-8.031,4.633-9.557,9.004-10.783,12.517c-1.009,2.881-1.807,5.165-7.352,8.363
		c-5.664,3.271-11.11,3.788-16.876,4.332c-6.893,0.649-14.018,1.319-20.584,7.059c-5.696,4.975-6.965,9.388-7.896,12.607
		c-0.984,3.41-1.492,5.177-8.732,7.357c-0.218-0.564-0.447-1.311-0.625-1.879c-0.833-2.7-1.975-6.396-5.328-8.336
		c-0.565-0.326-1.147-0.556-1.74-0.755c0.837-1.42,1.444-2.671,1.976-3.782c1.595-3.322,2.555-5.328,9.895-9.562
		c6.101-3.525,11.203-4.12,16.604-4.751c5.944-0.695,12.091-1.414,19.57-5.73c8.04-4.643,9.565-9.01,10.792-12.517
		c1.006-2.882,1.8-5.159,7.328-8.349c6.095-3.523,11.196-4.12,16.597-4.75c5.954-0.699,12.109-1.42,19.609-5.747
		c7.636-4.41,8.952-9.511,9.919-13.237c0.508-1.963,0.906-3.402,2.166-4.65c0.504,0.568,1.114,1.087,1.888,1.535
		c3.482,2.008,7.588,1.344,11.206,0.759c1.634-0.269,3.552-0.589,4.914-0.476C182.126,71.924,182.05,72.012,181.972,72.103z" fill="#c13a3a" class="color000 svgShape"></path></svg></g></svg>