<svg xmlns="http://www.w3.org/2000/svg" xmlns:xlink="http://www.w3.org/1999/xlink" stroke="#C13A3A" version="1.1" width="200" height="200" enable-background="new 0 0 200 200" xml:space="preserve" data-icon-custom="true" data-icon-name="Chicken.svg" alt="Herbert's Meat Market | Chicken Lickin' - Hempstead, NY" style=""><rect id="backgroundrect" width="100%" height="100%" x="0" y="0" fill="none" stroke="none"/>  
<g class="currentLayer" style=""><title>Layer 1</title><g id="1626151910" class="selected" fill="#c13a3a" fill-opacity="1"> <g id="1154899066" fill="#c13a3a" fill-opacity="1"> <path stroke="#C13A3A" d="M192.146,107.258c-0.003-0.124-0.03-0.238-0.047-0.363c-0.052-0.396-0.154-0.774-0.311-1.141    c-0.048-0.116-0.086-0.232-0.147-0.345c-0.218-0.407-0.478-0.795-0.825-1.124c-0.021-0.021-0.075-0.07-0.099-0.094    c-0.004-0.002-0.007-0.007-0.011-0.009c-3.582-3.403-31.985-29.833-48.749-29.833c-4.155,0-4.551-0.862-5.741-7.628    c-0.222-1.257-0.481-2.589-0.774-3.93c0.642-6.289,3.497-39.42-6.271-50.308c-2.354-2.627-5.355-4.012-8.682-4.012    c-2.255,0-4.139,1.714-4.35,3.957l-0.959,10.183C89.035-2.245,83.132,0.976,81.086,2.093c-2.047,1.112-2.857,3.642-1.839,5.74    l5.51,11.346C69.914,10.923,52.255,3.099,45.152,7.722c-1.107,0.72-1.83,1.905-1.965,3.219c-0.135,1.313,0.333,2.618,1.272,3.548    l11.099,10.976c-9.349,2.154-21.33,5.881-24.598,11.326c-1.199,1.996-0.619,4.585,1.317,5.876l16.47,11.015    c0.566,0.377,1.097,0.764,1.646,1.145C25.953,95.289,8.845,186.388,8.108,190.358c-0.44,2.374,1.125,4.653,3.497,5.094    c0.27,0.051,0.537,0.071,0.802,0.071c2.064,0,3.899-1.467,4.29-3.568c0.176-0.952,17.329-92.306,40.693-131.809    c3.388,1.647,7.382,1.294,11.224-1.134c6.509-4.116,17.328-8.517,22.393-8.333c2.328,0.103,8.059,2.622,12.663,4.648    c6.673,2.934,12.971,5.706,17.378,5.706c4.029,0,5.492,2.669,5.837,3.447c0.29,1.288,0.519,2.554,0.733,3.76    c0.235,1.34,0.498,2.787,0.867,4.233c-5.752,4.123-14.362,11.319-14.362,17.509c0,2.414,1.951,4.426,4.363,4.426    s4.363-1.897,4.363-4.311c0.327-1.728,4.718-6.021,9.913-9.901c2.033,1.745,4.934,2.886,9.197,2.886    c6.291,0,17.01,6.547,26.909,14.055c-11.237-3.033-24.061-5.772-30.313-4.523c-2.364,0.472-3.896,2.771-3.425,5.138    c0.471,2.367,2.763,3.911,5.137,3.425c4.852-0.978,17.996,1.997,30.328,5.502l-40.511,8.692c-2.357,0.502-3.858,2.828-3.354,5.186    c0.44,2.047,2.252,3.449,4.265,3.449c0.304,0,0.613-0.027,0.921-0.096l19.38-4.162c2.515,8.61,4.578,22.338-1.234,26.336    c-7.963,5.482-20.404-10.289-20.526-10.452c-1.471-1.907-4.214-2.282-6.124-0.806c-1.914,1.46-2.275,4.2-0.815,6.113    c2.081,2.72,4.96,5.813,8.297,8.491c0,0.041-0.024,0.078-0.021,0.119l1.266,40.65c0.071,2.361,2.01,4.23,4.363,4.23    c0.044,0,0.089,0,0.137,0c2.408-0.075,4.305-2.095,4.229-4.503l-1.099-35.247c2.177,0.822,4.415,1.317,6.656,1.317    c2.896,0,5.803-0.802,8.583-2.716c11.146-7.662,7.423-26.411,4.848-35.369l28.871-6.195c0.078-0.018,0.143-0.062,0.218-0.082    c0.167-0.041,0.321-0.109,0.481-0.171c0.238-0.095,0.464-0.204,0.682-0.341c0.144-0.089,0.273-0.185,0.406-0.286    c0.201-0.164,0.386-0.342,0.557-0.539c0.108-0.127,0.218-0.246,0.313-0.386c0.164-0.235,0.286-0.495,0.402-0.761    c0.045-0.109,0.119-0.191,0.157-0.301c0.01-0.03,0.003-0.061,0.014-0.092c0.014-0.044,0.041-0.085,0.055-0.13    C192.14,108.178,192.167,107.714,192.146,107.258z M121.046,52.3c-2.572,0-8.828-2.755-13.86-4.964    c-6.349-2.794-11.834-5.208-15.802-5.381c-0.232-0.008-0.471-0.017-0.711-0.017c-8.3,0-20.692,5.876-26.729,9.697    c-2.18,1.368-2.914,0.666-3.39,0.188c-0.404-0.404-0.849-0.722-1.271-1.092c-0.207-0.21-0.365-0.454-0.619-0.623    c-0.063-0.042-0.137-0.044-0.201-0.083c-1.566-1.293-3.183-2.485-4.865-3.606l-11.36-7.594c4.965-2.248,13.925-4.815,22.967-6.401    c1.608-0.285,2.925-1.441,3.413-2.997c0.486-1.561,0.065-3.263-1.099-4.409l-8.186-8.099c8.503,3.118,21.166,9.492,33.375,17.091    c1.651,1.029,3.783,0.841,5.226-0.46c1.447-1.3,1.859-3.403,1.008-5.151l-6.719-13.833c6.587,4.883,15.699,12.985,23.354,20.647    c1.194,1.194,2.979,1.583,4.564,1.023c1.597-0.575,2.709-2.016,2.872-3.701l1.126-11.949c3.296,6.746,3.814,21.1,3.234,32.971    C125.59,52.786,123.488,52.3,121.046,52.3z" id="1360306786" fill="#c13a3a" fill-opacity="1"/> 
</g> 
 <g id="1374307648" fill="#c13a3a" fill-opacity="1"> <circle fill="#c13a3a" cx="92.83399963378906" cy="76.33899688720703" r="8.732999801635742" id="1066526230" fill-opacity="1"/> 
</g> 
</g></g></svg>