<svg xmlns="http://www.w3.org/2000/svg" xmlns:xlink="http://www.w3.org/1999/xlink" version="1.1" width="200" height="200" enable-background="new 0 0 200 200" xml:space="preserve" data-icon-custom="true" data-icon-name="Cow.svg" alt="Herbert's Meat Market |  Good Old Day - Hempstead, NY" style=""><rect id="backgroundrect" width="100%" height="100%" x="0" y="0" fill="none" stroke="none"/>  
<g class="currentLayer" style=""><title>Layer 1</title><g id="1307885440" class="selected" fill-opacity="1" fill="#c13a3a"> <g id="1833407414" fill="#c13a3a"> <path d="M30.456,74.193c-1.8,2.241-10.874,13.585-12.755,17.083c-1.077,1.997-0.331,4.491,1.671,5.572    c0.621,0.333,1.287,0.49,1.946,0.49c1.464,0,2.881-0.785,3.625-2.167c1.181-2.188,7.942-10.869,11.924-15.821    c1.425-1.773,1.144-4.363-0.628-5.785C34.471,72.148,31.879,72.429,30.456,74.193z" id="1437790114" fill="#c13a3a"/> 
</g> 
 <g id="1290791013" fill="#c13a3a"> <path d="M78.909,117.906c-6.805,0-12.34,5.537-12.34,12.34s5.535,12.34,12.34,12.34c6.804,0,12.34-5.537,12.34-12.34    S85.713,117.906,78.909,117.906z M78.909,134.359c-2.268,0-4.114-1.845-4.114-4.113c0-2.271,1.846-4.113,4.114-4.113    c2.267,0,4.113,1.842,4.113,4.113C83.021,132.515,81.175,134.359,78.909,134.359z" id="1058603280" fill="#c13a3a"/> 
</g> 
 <g id="1546654139" fill="#c13a3a"> <path d="M120.041,117.906c-6.804,0-12.34,5.537-12.34,12.34s5.536,12.34,12.34,12.34c6.806,0,12.34-5.537,12.34-12.34    S126.847,117.906,120.041,117.906z M120.041,134.359c-2.267,0-4.114-1.845-4.114-4.113c0-2.271,1.848-4.113,4.114-4.113    c2.268,0,4.112,1.842,4.112,4.113C124.153,132.515,122.309,134.359,120.041,134.359z" id="1841439338" fill="#c13a3a"/> 
</g> 
 <g id="1484154407" fill="#c13a3a"> <path d="M191.125,84.504c-7.514-16.485-16.551-24.916-26.127-24.174c-4.602,0.288-8.322-2.283-11.787-5.881    c24.005-10.417,32.644-38.548,32.644-41.434c0-1.812-1.183-3.407-2.912-3.937c-1.729-0.53-3.605,0.14-4.614,1.643    c-1.411,2.1-13.021,9.5-47.542,23.917c-7.681-4.729-21.056-11.339-31.311-11.339c-10.282,0-24.02,6.853-31.316,11.336    C33.644,20.22,22.033,12.821,20.622,10.721c-1.012-1.502-2.889-2.172-4.613-1.643c-1.73,0.53-2.914,2.125-2.914,3.937    c0,2.886,8.638,31.012,32.642,41.433c-3.462,3.598-7.187,6.171-11.788,5.882c-9.538-0.787-18.594,7.677-26.107,24.15    c-0.436,0.956-10.589,23.4-5.882,28.108c3.411,3.409,7.693,4.833,12.396,4.833c11.074-0.007,24.47-7.88,34.255-16.166    c3.016,5.776,5.956,10.182,6.278,10.661c-0.062,0.17-0.135,0.331-0.195,0.498l-4.804,14.012    c-3.545,10.334-1.916,21.389,4.468,30.329c1.835,2.567,4.026,4.808,6.443,6.755c-1.445,0.64-2.46,2.076-2.46,3.757v4.637    c0,11.049,8.993,20.043,20.044,20.043h42.182c11.048,0,20.039-8.994,20.039-20.043v-4.637c0-1.681-1.012-3.114-2.454-3.754    c2.416-1.95,4.607-4.19,6.44-6.758c6.388-8.94,8.014-19.995,4.47-30.329l-4.805-14.012c-0.058-0.171-0.136-0.331-0.192-0.502    c0.327-0.491,3.265-4.891,6.279-10.657c9.785,8.293,23.179,16.166,34.253,16.166c4.698,0,8.982-1.424,12.391-4.833    C201.697,107.89,191.556,85.46,191.125,84.504z M131.416,45.459c0.147-1.422,1.009-2.59,2.302-3.129    c6.979-2.913,12.956-5.506,18.144-7.837l-2.529,12.656c-3.773,1.563-7.985,2.606-12.697,2.873c-1.632-0.212-2.77-0.61-3.769-1.302    C131.352,47.673,131.349,46.091,131.416,45.459z M158.854,41.482l2.243-11.208c0.003-0.017-0.007-0.034,0-0.051    c4.752-2.271,8.592-4.227,11.616-5.886C169.734,29.912,165.236,36.403,158.854,41.482z M49.618,47.148l-2.531-12.655    c5.188,2.331,11.166,4.925,18.147,7.837c1.292,0.539,2.153,1.707,2.305,3.129c0.065,0.631,0.059,2.214-1.448,3.261    c-0.999,0.691-2.142,1.09-3.776,1.302C57.605,49.756,53.393,48.713,49.618,47.148z M26.236,24.335    c3.024,1.658,6.864,3.617,11.619,5.887c0.003,0.018-0.003,0.036,0,0.053l2.241,11.206C33.714,36.4,29.217,29.907,26.236,24.335z     M132.381,171.38v0.523c0,6.514-5.3,11.817-11.813,11.817H78.386c-6.515,0-11.817-5.304-11.817-11.817v-0.523h16.508h32.8H132.381    z M137.901,151.97c-5.077,7.104-13.105,11.184-22.025,11.184h-32.8c-8.919,0-16.946-4.079-22.022-11.184    c-4.82-6.748-6.054-15.088-3.382-22.877l4.804-14.012c3.641-10.611,13.851-17.742,25.405-17.742h23.193    c11.553,0,21.762,7.13,25.403,17.742l4.805,14.012C143.953,136.882,142.722,145.222,137.901,151.97z M151.896,91.579    c-0.96-0.924-2.316-1.326-3.63-1.076c-1.315,0.252-2.421,1.127-2.974,2.349c-1.851,4.101-4.032,7.954-5.671,10.674    c-6.438-8.876-16.975-14.413-28.547-14.413H87.881c-11.576,0-22.111,5.537-28.548,14.416c-1.639-2.723-3.821-6.575-5.672-10.677    c-0.551-1.221-1.66-2.097-2.972-2.349c-1.316-0.25-2.67,0.152-3.631,1.076c-12.745,12.281-30.542,21.195-38.187,16.085    c0.794-5.638,7.031-26.092,16.42-35.243c2.828-2.755,5.556-4.02,8.077-3.888c9.857,0.761,16.59-6.093,20.975-11.328    c2.507,0.542,5.134,0.919,7.916,1.053c0.066,0.005,0.131,0.005,0.198,0.005c0.152,0,0.305-0.008,0.458-0.024    c1.993-0.225,4.978-0.755,7.87-2.761c3.552-2.47,5.399-6.54,4.936-10.889c-0.156-1.473-0.598-2.868-1.24-4.149    c8.01-4.643,18.43-8.914,24.997-8.914c6.619,0,16.851,4.182,25,8.911c-0.642,1.283-1.086,2.677-1.24,4.152    c-0.463,4.35,1.382,8.419,4.939,10.889c2.89,2.005,5.871,2.536,7.863,2.761c0.151,0.016,0.306,0.024,0.457,0.024    c0.066,0,0.135,0,0.199-0.005c2.776-0.133,5.398-0.511,7.904-1.049c4.407,5.252,11.139,12.063,20.979,11.325    c2.526-0.108,5.262,1.133,8.09,3.888c9.389,9.156,15.623,29.605,16.417,35.243C182.436,112.768,164.638,103.854,151.896,91.579z" id="1040081508" fill="#c13a3a"/> 
</g> 
 <g id="1394737259" fill="#c13a3a"> <path d="M62.457,68.545c1.613-1.21,3.501-1.904,5.184-1.904c0.729,0,2.061,0.14,2.767,1.08c1.368,1.824,3.938,2.193,5.761,0.824    c1.815-1.362,2.185-3.941,0.824-5.757c-3.963-5.287-13.035-5.656-19.471-0.823c-6.765,5.072-8.813,13.385-4.663,18.92    c0.809,1.08,2.044,1.647,3.295,1.647c0.856,0,1.723-0.27,2.463-0.824c1.816-1.361,2.186-3.94,0.824-5.756    C58.276,74.397,59.318,70.899,62.457,68.545z" id="1084955618" fill="#c13a3a"/> 
</g> 
 <g id="1802077516" fill="#c13a3a"> <path d="M70.682,72.659c-4.536,0-8.227,3.691-8.227,8.227c0,4.534,3.69,8.227,8.227,8.227c4.538,0,8.227-3.692,8.227-8.227    C78.909,76.35,75.219,72.659,70.682,72.659z" id="1414101710" fill="#c13a3a"/> 
</g> 
 <g id="1772968001" fill="#c13a3a"> <path d="M141.433,61.966c-6.439-4.836-15.512-4.464-19.471,0.823c-1.362,1.815-0.99,4.395,0.822,5.757    c1.822,1.369,4.397,1,5.763-0.824c0.704-0.94,2.034-1.08,2.767-1.08c1.681,0,3.57,0.694,5.181,1.904    c3.143,2.354,4.184,5.852,3.021,7.407c-1.362,1.816-0.996,4.395,0.823,5.756c0.739,0.554,1.605,0.824,2.461,0.824    c1.254,0,2.487-0.567,3.297-1.647C150.247,75.351,148.197,67.038,141.433,61.966z" id="1994723678" fill="#c13a3a"/> 
</g> 
 <g id="1476508485" fill="#c13a3a"> <path d="M128.267,72.659c-4.534,0-8.226,3.691-8.226,8.227c0,4.534,3.691,8.227,8.226,8.227c4.538,0,8.228-3.692,8.228-8.227    C136.494,76.35,132.805,72.659,128.267,72.659z" id="1389864280" fill="#c13a3a"/> 
</g> 
 <g id="1123384249" fill="#c13a3a"> <path d="M162.713,73.567c-1.77,1.422-2.053,4.012-0.63,5.785c3.981,4.952,10.743,13.633,11.926,15.821    c0.742,1.382,2.16,2.167,3.625,2.167c0.659,0,1.324-0.158,1.947-0.49c1.999-1.082,2.745-3.575,1.671-5.572    c-1.883-3.498-10.958-14.842-12.757-17.083C167.074,72.429,164.48,72.148,162.713,73.567z" id="1812919537" fill="#c13a3a"/> 
</g> 
</g></g></svg>