<svg id="SvgjsSvg1001" width="288" height="288" xmlns="http://www.w3.org/2000/svg" version="1.1" xmlns:xlink="http://www.w3.org/1999/xlink" xmlns:svgjs="http://svgjs.com/svgjs"><defs id="SvgjsDefs1002"></defs><g id="SvgjsG1008" transform="matrix(0.9167,0,0,0.9167,11.92359833316803,12.23886260490417)"><svg xmlns="http://www.w3.org/2000/svg" width="288" height="288" class="svg u_1688439876" data-icon-custom="true" data-icon-name="ChickenLeg.svg" enable-background="new 0 0 200 200" viewBox="0 0 200 200"><circle cx="56.335" cy="35.185" r="4.203" fill="#c13a3a" class="color000 svgShape"></circle><path d="M181.176,136.249c-5.521-5.523-13.94-6.335-20.384-2.552l-27.409-27.405c0.709-21.738-9.064-56.627-23.544-71.107
			C98.8,24.147,83.549,17.013,67.99,15.604c-16.409-1.502-31.104,3.363-41.377,13.639C16.338,39.517,11.495,54.208,12.976,70.617
			c1.406,15.559,8.542,30.811,19.581,41.852c13.789,13.787,46.928,23.334,68.809,23.334c0.697,0,1.351-0.04,2.025-0.06
			l27.677,27.675c-3.786,6.443-2.976,14.864,2.552,20.388c3.277,3.281,7.583,4.92,11.889,4.92c4.302,0,8.61-1.639,11.888-4.92
			c3.771-3.771,6.831-10.693,6.717-17.074c0.114,0.004,0.223,0.026,0.338,0.026c6.279,0,13.024-3.031,16.726-6.732
			C187.73,153.471,187.73,142.804,181.176,136.249z M21.35,69.861c-1.255-13.88,2.726-26.195,11.207-34.676
			c8.481-8.479,20.796-12.466,34.678-11.207c13.629,1.231,26.99,7.484,36.661,17.151c11.116,11.124,19.313,37.054,20.86,56.536
			l-0.056-0.056c-1.643-1.642-4.303-1.642-5.944,0c-1.643,1.639-1.643,4.299,0,5.941l14.249,14.253
			c-6.867,5.162-12.325,11.979-15.858,19.81l-16.225-16.227c-1.644-1.643-4.304-1.643-5.944,0c-1.575,1.572-1.598,4.059-0.156,5.711
			c-19.507-1.563-45.397-9.652-56.322-20.572C28.831,96.856,22.582,83.49,21.35,69.861z M175.231,154.081
			c-3.681,3.682-11.99,5.85-14.863,2.973c-1.643-1.643-4.299-1.643-5.944,0c-0.404,0.384-0.709,0.857-0.916,1.376
			c-0.417,1.021-0.414,2.174,0.007,3.195c0.049,0.125,0.157,0.214,0.216,0.332c0.194,0.364,0.388,0.732,0.693,1.041
			c2.874,2.87,0.713,11.182-2.972,14.863c-3.278,3.271-8.611,3.281-11.889,0c-3.277-3.277-3.277-8.61,0-11.892
			c1.642-1.642,1.642-4.302,0-5.944l-15.961-15.957c2.966-8.178,8.345-15.241,15.412-20.256l18.381,18.381
			c0.821,0.821,1.898,1.231,2.973,1.231c1.077,0,2.151-0.41,2.972-1.231c3.284-3.274,8.614-3.274,11.892,0
			C178.51,145.468,178.51,150.808,175.231,154.081z" fill="#c13a3a" class="color000 svgShape"></path><path d="M41.603,71.487c-1.207-5.924-1.179-14.45,5.814-21.441c1.642-1.642,1.642-4.302,0-5.944s-4.302-1.642-5.944,0
			c-7.516,7.517-10.396,17.837-8.108,29.064c1.995,9.792,7.741,19.825,16.176,28.26c0.823,0.821,1.898,1.231,2.972,1.231
			c1.077,0,2.152-0.41,2.974-1.231c1.642-1.642,1.642-4.302,0-5.944C48.204,88.198,43.273,79.676,41.603,71.487z" fill="#c13a3a" class="color000 svgShape"></path></svg></g></svg>