<svg id="SvgjsSvg1018" width="288" height="288" xmlns="http://www.w3.org/2000/svg" version="1.1" xmlns:xlink="http://www.w3.org/1999/xlink" xmlns:svgjs="http://svgjs.com/svgjs"><defs id="SvgjsDefs1019"></defs><g id="SvgjsG1020"><svg xmlns="http://www.w3.org/2000/svg" width="288" height="288" class="svg u_1540275335" data-icon-custom="true" data-icon-name="Steak.svg" enable-background="new 0 0 200 200" viewBox="0 0 200 200"><path d="M177.855,20.676c0.376-1.965,0.27-3.849-0.469-5.689c-2.429-6.061-10.524-7.844-17.303-8.724
		C134.572,2.989,84.401,32.867,47.752,54.7l-9.567,5.688c-10.214,6.035-16.173,14.677-16.777,24.327
		c-0.082,1.286-0.062,2.574,0.05,3.859v33.31c-0.761,10.303,4.506,20.614,14.683,28.447c16.067,12.437,61.14,43.224,84.746,43.224
		c1.082,0,2.124-0.069,3.113-0.2c19.005-2.56,18.479-22.582,17.919-43.781c-0.149-5.771-0.31-11.738-0.109-17.863
		c0.007-0.165,0.019-0.325,0.025-0.487c0.094-1.277,0.156-2.585,0.2-3.912c0.013-0.185,0.013-0.363,0.028-0.545
		c0.009-0.125,0.016-0.457,0.016-0.575l-0.016-0.082c0.341-3.937,0.826-7.348,1.48-10.427c3.157-14.733,13.604-27.696,22-38.104
		c7.491-9.292,12.902-16.014,12.439-22.006c0-0.025,0.016-0.047,0.016-0.072L177.855,20.676z M155.762,14.008
		c1.151,0,2.253,0.067,3.292,0.205c8.312,1.075,10.309,2.851,10.778,3.542l0.009,1.978c-0.991,3.533-6.161,9.97-10.502,15.348
		c-0.016,0.021-0.031,0.042-0.05,0.063c-0.016,0.006-0.035,0.001-0.051,0.008c-3.589,0.928-27.041-1.691-51.22-5.11
		C126.529,20.841,143.989,14.008,155.762,14.008z M133.896,112.282c0.15,5.426,0.247,10.271,0.138,14.508
		c-0.101,1.308-0.16,2.626-0.2,4.034c-0.727,10.229-3.333,16.106-10.894,17.134c-3.136,0.425-7.136-0.116-11.724-1.396
		c-0.105-3.858-2.506-15.084-15.528-53.499c8.174-3.369,27.182-11.614,41.224-20.867c-0.432,1.444-0.876,2.885-1.198,4.375
		C133.236,88.165,133.587,100.975,133.896,112.282z M81.2,44.412c-0.301,7.017-1.458,19.562-2.838,31.761
		c-9.514-7.386-18.433-14.368-19.484-15.352c-0.062-0.058-0.144-0.075-0.209-0.13c1.349-2.801,3.042-4.984,5.188-6.234
		C69.414,51.178,75.247,47.785,81.2,44.412z M95.808,36.355c14.593,2.197,42.417,6.154,57.169,6.775
		c-0.385,0.504-0.764,1.011-1.148,1.522c-0.147,0.144-0.234,0.33-0.359,0.493c-2.226,2.99-4.406,6.125-6.438,9.423
		c-0.007,0.008-0.016,0.013-0.022,0.022c-6.75,10.82-39.24,25.724-53.698,31.607c-1.768-1.364-3.665-2.831-5.608-4.334
		c0.025-0.119,0.091-0.217,0.106-0.341c3.001-25.367,3.599-36.446,3.346-41.556C91.37,38.746,93.586,37.544,95.808,36.355z
		 M57.162,118.162c-2.601-14.571-4.112-35.227-1.142-49.323c7.019,5.647,25.342,19.798,31.254,24.359
		c6.869,20.197,13.816,42.313,15.582,50.463C88.936,138.138,71.933,128.198,57.162,118.162z M42.263,67.283l6.916-4.11
		c-4.512,15.176-2.766,36.271-1.114,48.593c-2.45-1.784-4.832-3.552-7.026-5.251c-6.834-5.292-10.925-11.852-11.569-18.369V84.91
		c0-0.023-0.016-0.044-0.016-0.069C30.027,77.98,34.433,71.909,42.263,67.283z M122.925,185.411
		c-16.611,2.315-57.898-22.852-81.889-41.422c-7.961-6.131-12.121-13.889-11.607-21.424c0.003-0.069,0.041-0.125,0.041-0.194
		v-15.832c1.912,2.237,4.137,4.354,6.663,6.312c3.627,2.807,8.778,6.568,14.774,10.681c0.088,0.072,0.182,0.122,0.275,0.188
		c20.592,14.089,51.511,32.381,69.722,32.378c1.082,0,2.128-0.066,3.113-0.197c4.225-0.576,7.436-2.053,9.942-4.169
		C134.457,172.235,133.909,183.934,122.925,185.411z M159.311,72.545c-5.858,7.264-12.618,15.715-17.604,25.341
		c0.072-6.727,0.504-13.377,1.844-19.642c3.157-14.743,13.619-27.711,22.025-38.132c1.533-1.899,2.985-3.702,4.324-5.425
		l0.088,20.489c0,0.019-0.013,0.034-0.013,0.051c0,0.11,0.007,0.49,0.013,0.6C170.251,58.975,164.69,65.875,159.311,72.545z" fill="#c13a3a" class="color000 svgShape"></path></svg></g></svg>