<svg id="SvgjsSvg1018" width="288" height="288" xmlns="http://www.w3.org/2000/svg" version="1.1" xmlns:xlink="http://www.w3.org/1999/xlink" xmlns:svgjs="http://svgjs.com/svgjs"><defs id="SvgjsDefs1019"></defs><g id="SvgjsG1020" transform="matrix(0.9167,0,0,0.9167,11.995200000000011,11.995199682235722)"><svg xmlns="http://www.w3.org/2000/svg" class="svg u_1662961544" data-icon-name="wp-location_pin_thin" viewBox="0 0 70 70" width="288" height="288"><path d="M35,10c-9.4,0-17,7.6-17,17c0,4.1,1.5,8,4.1,11.1l0.1,0.1c4.6,5.3,7.9,10.8,9.9,16.4l1,3.7l0,0.1c0.3,1.1,1,1.6,1.9,1.6
		s1.6-0.5,1.9-1.6l1-3.8c1.9-5.6,5.3-11.2,9.9-16.4l0.1-0.1C50.5,35,52,31.1,52,27C52,17.6,44.4,10,35,10z M46.4,36.8L46.4,36.8
		C41.5,42.3,38.1,48.1,36,54l0,0.1c0,0-1,3.7-1,3.7c0,0-0.1-0.2-0.1-0.2L34,54l0-0.1c-2-5.8-5.5-11.5-10.2-17l-0.1-0.1
		C21.3,34.1,20,30.6,20,27c0-8.3,6.7-15,15-15s15,6.7,15,15C50,30.6,48.7,34.1,46.4,36.8z" fill="#c13a3a" class="color000 svgShape"></path><path d="M35,34c-3.9,0-7-3.1-7-7s3.1-7,7-7c3.9,0,7,3.1,7,7S38.9,34,35,34z M35,22c-2.8,0-5,2.2-5,5s2.2,5,5,5c2.8,0,5-2.2,5-5
		S37.8,22,35,22z" fill="#c13a3a" class="color000 svgShape"></path></svg></g></svg>