<svg id="SvgjsSvg1023" width="288" height="288" xmlns="http://www.w3.org/2000/svg" version="1.1" xmlns:xlink="http://www.w3.org/1999/xlink" xmlns:svgjs="http://svgjs.com/svgjs"><defs id="SvgjsDefs1024"></defs><g id="SvgjsG1025"><svg xmlns="http://www.w3.org/2000/svg" width="288" height="288" class="svg u_1732559721" data-icon-custom="true" data-icon-name="Ham.svg" enable-background="new 0 0 200 200" viewBox="0 0 200 200"><path d="M183.071,140.912c-4.973-4.979-12.548-5.728-18.374-2.355c-11.004-12.339-16.512-29.535-15.177-47.706
			c2.52-34.221-37.453-69.881-39.154-71.383c-0.035-0.031-0.083-0.039-0.119-0.068c-5.573-5.251-15.5-5.023-28.056,0.697
			C70.573,25.394,57.645,34.841,45.787,46.7C23.7,68.784,6.777,98.729,18.481,111.15c0.033,0.039,0.04,0.089,0.074,0.128
			c1.5,1.704,37.125,41.688,71.382,39.151c18.118-1.306,35.287,4.148,47.707,15.183c-3.366,5.823-2.617,13.393,2.358,18.368
			c2.969,2.971,6.867,4.455,10.77,4.455c3.896,0,7.798-1.484,10.767-4.455c3.414-3.414,6.186-9.684,6.079-15.46
			c0.104,0.003,0.202,0.024,0.306,0.024c5.689,0,11.799-2.742,15.147-6.097C189.011,156.512,189.011,146.849,183.071,140.912z
			 M51.17,52.083c11.231-11.232,23.371-20.132,34.18-25.062c5.575-2.539,10.453-3.836,14.125-3.836c2.51,0,4.458,0.602,5.684,1.829
			c3.019,3.019,2.269,10.424-2.011,19.808C98.22,55.633,89.322,67.771,78.09,79.002c-23.195,23.196-47.635,33.406-53.987,27.068
			C17.75,99.718,27.975,75.277,51.17,52.083z M89.381,142.837c-20.957,1.562-43.798-16.233-56.08-27.567
			c14.556-1.939,34.375-15.084,50.172-30.884c8.811-8.81,16.282-18.21,21.715-27.224c7.447,10.096,19.831,29.182,19.097,39.191
			c-0.91,12.371,2.267,23.167,8.72,29.618c0.741,0.743,1.717,1.115,2.689,1.115c0.975,0,1.95-0.372,2.694-1.115
			c1.483-1.487,1.483-3.896,0-5.384c-6.938-6.938-6.864-18.87-6.514-23.676c1.121-15.225-17.773-40.733-22.698-47.105
			c0.295-0.607,0.625-1.224,0.898-1.823c2.319-5.093,3.702-9.731,4.223-13.849c11.326,12.246,29.18,35.103,27.63,56.16
			c-1.059,14.434,1.809,28.341,8.051,40.201c-8.176,4.925-16.977,10.636-20.729,20.212
			C117.48,144.604,103.684,141.784,89.381,142.837z M177.688,157.064c-3.319,3.325-10.802,5.276-13.426,2.713
			c-0.006-0.006-0.012-0.019-0.018-0.03c-0.193-0.19-0.446-0.291-0.678-0.428c-1.297-0.839-2.93-0.81-4.199,0.089
			c-0.173,0.119-0.381,0.19-0.53,0.339c-0.345,0.363-0.618,0.785-0.809,1.243c-0.577,1.38-0.307,3.028,0.815,4.149
			c2.599,2.599,0.645,10.124-2.689,13.458c-2.968,2.968-7.798,2.968-10.769,0c-2.969-2.966-2.969-7.799,0-10.767
			c1.486-1.487,1.486-3.896,0-5.383c-0.009-0.01-0.021-0.013-0.03-0.019c-0.009-0.009-0.009-0.018-0.015-0.026
			c-2.902-2.899-6.085-5.484-9.487-7.777l0.104-0.31c2.558-7.673,10.097-12.568,17.939-17.297c2.251,3.304,4.785,6.406,7.613,9.243
			c0.009,0.009,0.009,0.021,0.019,0.03l0.056,0.05c0,0.003,0,0.003,0,0.003c0.007,0.003,0.007,0.006,0.007,0.006
			c0.121,0.113,0.273,0.161,0.401,0.256c0.185,0.137,0.371,0.274,0.57,0.369c0.087,0.042,0.155,0.122,0.241,0.157
			c0.006,0.003,0.006,0.003,0.012,0.003c0.161,0.065,0.34,0.057,0.506,0.096c1.252,0.312,2.617,0.042,3.599-0.937
			c2.968-2.966,7.798-2.966,10.767,0C180.656,149.267,180.656,154.097,177.688,157.064z" fill="#c13a3a" class="color000 svgShape"></path><path d="M56.039,80.873c1.468,0,3.264-0.361,5.442-1.335c3.224-1.438,6.76-3.993,9.956-7.19
			c6.699-6.699,11.354-15.562,6.654-20.264H78.09c-1.329-1.328-4.436-3.167-10.308-0.54c-3.224,1.439-6.759,3.993-9.956,7.19
			c-3.197,3.197-5.751,6.733-7.194,9.956c-2.626,5.878-0.788,8.981,0.539,10.305C52.005,79.834,53.546,80.873,56.039,80.873z
			 M63.209,64.117c3.721-3.718,7.138-5.58,8.976-6.13c-0.549,1.839-2.412,5.257-6.131,8.978c-3.721,3.717-7.139,5.584-8.976,6.131
			C57.625,71.259,59.487,67.839,63.209,64.117z" fill="#c13a3a" class="color000 svgShape"></path></svg></g></svg>