<svg id="SvgjsSvg1029" width="288" height="288" xmlns="http://www.w3.org/2000/svg" version="1.1" xmlns:xlink="http://www.w3.org/1999/xlink" xmlns:svgjs="http://svgjs.com/svgjs"><defs id="SvgjsDefs1030"></defs><g id="SvgjsG1031"><svg xmlns="http://www.w3.org/2000/svg" width="288" height="288" class="svg u_1171658616" data-icon-custom="true" data-icon-name="Pig.svg" enable-background="new 0 0 200 200" viewBox="0 0 200 200"><path d="M99.784,106.121c-16.619,0-34.199,15.626-34.199,30.398c0,12.604,11.506,18.999,34.199,18.999
			c22.695,0,34.199-6.395,34.199-18.999C133.982,121.747,116.405,106.121,99.784,106.121z M99.784,147.919
			c-17.648,0-26.599-3.836-26.599-11.399c0-10.651,14.171-22.799,26.599-22.799c12.429,0,26.599,12.147,26.599,22.799
			C126.383,144.083,117.435,147.919,99.784,147.919z" fill="#c13a3a" class="color000 svgShape"></path><path d="M111.183,125.12c-4.194,0-7.6,3.401-7.6,7.6c0,4.197,3.405,7.6,7.6,7.6c4.198,0,7.601-3.402,7.601-7.6
			C118.783,128.521,115.381,125.12,111.183,125.12z" fill="#c13a3a" class="color000 svgShape"></path><path d="M199.535,59.653c-0.525-1.222-1.653-2.08-2.972-2.261c-15.659-2.134-16.784-5.489-18.488-10.573
			c-1.146-3.417-2.574-7.674-7.368-11.934c-9.47-8.419-31.634-1.754-44.398,3.151c-7.09-7.552-15.58-11.14-26.525-11.14
			c-10.945,0-19.433,3.587-26.525,11.143c-12.765-4.904-34.932-11.567-44.396-3.154c-4.794,4.26-6.223,8.517-7.368,11.934
			c-1.704,5.084-2.831,8.438-18.487,10.573c-1.32,0.181-2.448,1.039-2.975,2.261c-0.528,1.223-0.378,2.63,0.396,3.714
			c0.835,1.172,18.298,25.162,42.895,27.853c-1.388,2.372-2.826,4.757-4.342,7.143c-7.589,11.784-7.773,25.03-0.53,38.314
			c11.205,20.552,38.718,37.271,61.331,37.271c22.615,0,50.128-16.72,61.334-37.271c7.243-13.284,7.06-26.53-0.52-38.292
			c-1.522-2.398-2.966-4.79-4.354-7.166c24.595-2.693,42.06-26.682,42.896-27.852C199.912,62.283,200.066,60.876,199.535,59.653z
			 M146.047,83.382c-2.063-0.386-4.041,1.009-4.402,3.076c-0.368,2.067,1.006,4.037,3.075,4.405c0.938,0.168,1.87,0.271,2.796,0.371
			c2.061,3.696,4.275,7.456,6.68,11.247c7.57,11.749,4.313,23.102,0.25,30.559c-9.845,18.053-34.876,33.309-54.662,33.309
			c-19.783,0-44.814-15.256-54.659-33.309c-4.065-7.457-7.323-18.81,0.261-30.583c2.395-3.77,4.606-7.528,6.667-11.223
			c0.928-0.1,1.855-0.203,2.797-0.371c2.066-0.368,3.443-2.338,3.077-4.405c-0.365-2.063-2.341-3.447-4.404-3.076
			c-19.145,3.399-35.598-11.56-42.896-19.608c13.115-2.898,15.866-7.956,18.071-14.536c0.996-2.961,1.933-5.755,5.214-8.674
			c6.567-5.842,30.424,1.287,45.266,8.204c1.904,0.883,4.162,0.06,5.05-1.837c0.888-1.903,0.067-4.164-1.834-5.05
			c-0.315-0.147-0.837-0.386-1.502-0.683c5.17-4.575,11.165-6.702,18.893-6.702c7.727,0,13.724,2.127,18.892,6.7
			c-0.662,0.298-1.185,0.537-1.499,0.684c-1.9,0.886-2.726,3.15-1.838,5.05s3.156,2.721,5.053,1.837
			c14.837-6.924,38.693-14.039,45.266-8.204c3.28,2.919,4.219,5.713,5.213,8.674c2.206,6.58,4.958,11.642,18.088,14.536
			C181.676,71.827,165.26,86.771,146.047,83.382z" fill="#c13a3a" class="color000 svgShape"></path><path d="M153.768 45.406c-9.678-2.03-19.358 5.807-22.243 8.404l2.461 2.914-2.657-2.721c-1.479 1.447-1.416 3.696-.003 5.204 1.413 1.509 3.889 1.498 5.424.117.84-.75 7.935-6.809 14.128-6.65 1.454 2.175 2.808 5.14 2.315 6.605-.47 1.043-3.785 3.317-5.766 4.675-3.129 2.145-6.364 4.361-8.143 6.961-1.185 1.729-.742 4.097.991 5.281.656.448 1.401.664 2.141.664 1.211 0 2.404-.579 3.141-1.655.977-1.425 3.731-3.317 6.163-4.983 3.883-2.657 7.546-5.17 8.662-8.49 2.155-6.405-3.33-13.623-4.449-15.003C155.383 46.052 154.617 45.587 153.768 45.406zM110.15 69.782c4.61-4.898 13.32 2.75 13.501 2.906.725.653 1.636.975 2.538.975 1.039 0 2.072-.423 2.823-1.254 1.407-1.554 1.285-3.958-.273-5.366-4.945-4.463-16.348-10.724-24.12-2.471-1.439 1.529-1.368 3.934.16 5.37C106.303 71.385 108.71 71.311 110.15 69.782z" fill="#c13a3a" class="color000 svgShape"></path><circle cx="114.983" cy="83.323" r="7.6" fill="#c13a3a" class="color000 svgShape"></circle><circle cx="88.384" cy="132.72" r="7.6" fill="#c13a3a" class="color000 svgShape"></circle><path d="M62.933 59.443c1.503 1.467 3.911 1.437 5.372-.067 1.466-1.499 1.437-3.904-.062-5.373-.039-.037-.307-.297-.346-.334-2.737-2.457-12.425-10.301-22.094-8.263-.852.181-1.615.646-2.165 1.324-1.122 1.38-6.605 8.599-4.453 15.006 1.118 3.317 4.782 5.83 8.664 8.487 2.431 1.666 5.188 3.558 6.164 4.983.738 1.076 1.93 1.655 3.141 1.655.737 0 1.484-.215 2.14-.664 1.732-1.185 2.176-3.552.992-5.281-1.78-2.601-5.014-4.816-8.143-6.961-1.98-1.358-5.299-3.632-5.755-4.641-.5-1.496.851-4.468 2.305-6.64C54.859 52.519 61.988 58.583 62.933 59.443zM73.38 73.66c.904 0 1.811-.324 2.536-.969.089-.077 8.873-7.833 13.502-2.909 1.441 1.529 3.849 1.603 5.372.16 1.529-1.437 1.598-3.841.16-5.37-7.775-8.253-19.179-1.992-24.122 2.471-1.554 1.403-1.676 3.8-.276 5.355C71.303 73.233 72.34 73.66 73.38 73.66z" fill="#c13a3a" class="color000 svgShape"></path><circle cx="84.584" cy="83.323" r="7.6" fill="#c13a3a" class="color000 svgShape"></circle></svg></g></svg>