<svg id="SvgjsSvg1041" width="288" height="288" xmlns="http://www.w3.org/2000/svg" version="1.1" xmlns:xlink="http://www.w3.org/1999/xlink" xmlns:svgjs="http://svgjs.com/svgjs"><defs id="SvgjsDefs1042"></defs><g id="SvgjsG1043"><svg xmlns="http://www.w3.org/2000/svg" width="288" height="288" class="svg u_1010945595" data-icon-custom="true" data-icon-name="Kebob.svg" enable-background="new 0 0 200 200" viewBox="0 0 200 200"><path d="M180.193,27.613c-1.34-1.339-3.509-1.339-4.848,0l-20.779,20.778c-0.589-0.752-1.194-1.468-1.811-2.177l20.581-20.61
		c1.339-1.342,1.336-3.511-0.003-4.851c-1.342-1.336-3.512-1.336-4.848,0.003l-20.503,20.532c-2.188-1.97-4.462-3.646-6.798-4.998
		c-8.439-4.868-16.546-4.964-22.251-0.248c-1.106,0.924-2.065,1.988-2.724,2.99l-0.089,0.118l-7.837,8.697
		c-0.005,0.006-0.008,0.016-0.013,0.022l-0.107,0.118c-1.901,2.318-3.243,5.263-3.961,8.642c-2.675-0.01-4.934,0.835-6.736,2.558
		c-0.011,0.009-0.021,0.011-0.032,0.02L82.927,72.756c-0.423,0.316-0.833,0.656-1.207,1.057c-3.54,0.115-6.783,1.204-9.405,3.367
		c-1.11,0.927-2.07,1.995-2.71,2.973l-0.077,0.099l-7.862,8.755c-0.009,0.011-0.01,0.025-0.021,0.038l-0.042,0.047
		c-1.987,2.355-3.324,5.322-4.032,8.811c-1.983,0.274-3.72,1.051-5.152,2.405c-0.02,0.016-0.045,0.021-0.064,0.041l-14.523,13.56
		c-3.478,2.651-5.148,7.821-5.346,16.467c-3.086,2.646-4.772,6.915-4.772,12.279c0,4.894,1.39,10.267,3.937,15.366L19.02,170.669
		c-0.773,0.627-1.266,1.591-1.266,2.668c0,1.896,1.552,3.428,3.446,3.428c0.911,0,1.784-0.361,2.426-1.007l21.424-21.456
		c0.257-0.257,0.456-0.555,0.616-0.868c0.028-0.053,0.047-0.112,0.072-0.171c0.042-0.091,0.068-0.188,0.102-0.284
		c0.077-0.225,0.129-0.45,0.158-0.686c0.014-0.102,0.029-0.198,0.034-0.3c0.001-0.064,0.011-0.121,0.009-0.183
		c-0.007-0.354-0.055-0.707-0.174-1.05c-0.214-0.621-0.327-1.24-0.327-1.794c0-0.092,0.003-0.172,0.008-0.241
		c0.067,0.032,0.141,0.069,0.222,0.115c1.907,1.108,3.643,4.124,3.643,6.329c0,0.149-0.008,0.278-0.021,0.38
		c-0.039-0.003-0.075,0.005-0.114,0.005c-0.03,0-0.058,0-0.087,0c-0.301-0.005-0.593,0.038-0.875,0.118
		c-0.099,0.027-0.197,0.046-0.293,0.08c-0.256,0.103-0.497,0.239-0.725,0.402c-0.145,0.102-0.277,0.209-0.404,0.332
		c-0.024,0.024-0.052,0.04-0.075,0.064l-7.473,7.473l-14.434,14.433c-1.339,1.34-1.339,3.509,0,4.849
		c0.669,0.669,1.547,1.004,2.424,1.004c0.877,0,1.754-0.335,2.424-1.004l12.134-12.136c1.279,1.055,2.577,1.981,3.885,2.737
		c3.126,1.805,6.229,2.697,9.066,2.697c2.685,0,5.136-0.802,7.152-2.382c1.646,0.595,3.46,1.077,5.275,1.077
		c1.647,0,3.282-0.389,4.751-1.42c0.132-0.094,0.257-0.195,0.374-0.305l15.435-14.225l0.171-0.137
		c0.001-0.003,0.001-0.006,0.004-0.006c0.061-0.051,0.121-0.102,0.142-0.117c1.997-1.8,2.948-4.597,3.458-7.563
		c1.077,0.177,2.138,0.278,3.167,0.278c4.035,0,7.652-1.334,10.404-3.921c0.091-0.081,0.177-0.183,0.265-0.269
		c0.003,0,0.006-0.002,0.009-0.005l0.019-0.021c0.535-0.504,1.058-1.093,1.577-1.765l0.15-0.169c0.066-0.069,0.18-0.226,0.278-0.359
		l6.311-7.15c0.013-0.011,0.023-0.027,0.034-0.038c0.003,0,0.009-0.003,0.009-0.005c0.051-0.043,0.091-0.094,0.139-0.14
		c0.043-0.043,0.091-0.086,0.134-0.131l0.021-0.027c0.641-0.605,1.225-1.267,1.787-2.017l0.042-0.048
		c0.064-0.075,0.229-0.289,0.284-0.364c0.003-0.006,0.003-0.011,0.008-0.017c0.017-0.021,0.035-0.04,0.051-0.063
		c0.727-1.037,1.315-2.207,1.83-3.466l14.776-13.611l0.174-0.134c0-0.006,0.003-0.009,0.005-0.011
		c0.075-0.064,0.15-0.126,0.183-0.155c1.76-1.623,2.86-4.056,3.474-7.794c1.591,0.369,3.147,0.567,4.642,0.567
		c4.001,0,7.585-1.317,10.357-3.889c0.117-0.1,0.228-0.23,0.34-0.335c0.005-0.003,0.008-0.003,0.011-0.008l0.013-0.017
		c0.641-0.589,1.249-1.274,1.819-2.054l0.019-0.02c0.083-0.099,0.163-0.197,0.235-0.302l6.235-7.064
		c0.011-0.009,0.021-0.021,0.032-0.031c0.003-0.004,0.008-0.005,0.014-0.009c0.059-0.052,0.106-0.113,0.16-0.165
		c0.038-0.036,0.075-0.068,0.11-0.107l0.023-0.025c0.675-0.642,1.291-1.339,1.886-2.147l0.11-0.125l0.104-0.136
		c0.005-0.01,0.005-0.021,0.013-0.03c0.024-0.033,0.049-0.058,0.072-0.091c2.438-3.529,3.726-8.28,3.726-13.74
		c0-8.351-2.954-17.783-8.123-26.282l21.657-21.657C181.532,31.122,181.532,28.953,180.193,27.613z M114.946,67.788
		c0.04,0.027,0.292,0.171,0.335,0.198c0,0,0.003,0.001,0.006,0.001c0.034,0.029,0.074,0.052,0.112,0.08
		c0.08,0.059,0.158,0.121,0.243,0.173c3.603,2.199,6.355,4.388,8.424,6.698c4.095,4.56,5.938,10.071,6.36,19.016
		c0.067,1.464,0.1,2.986,0.1,4.613c0,3.011-0.048,5.033-0.166,6.779c-0.343,5.472-1.243,7.068-1.559,7.373l-0.172,0.137
		c-0.003,0.003-0.005,0.006-0.008,0.011c-0.072,0.059-0.147,0.12-0.174,0.147l-6.52,5.994c0.083-1.717,0.121-3.587,0.129-5.633
		v-0.648c0-11.093-1.297-20.012-7.623-27.471c-2.721-3.243-6.275-6.126-11.182-9.066c-2.139-1.282-3.956-2.263-5.512-2.973
		c-1.302-0.615-2.523-1.084-3.695-1.465l8.067-7.53c0.012-0.011,0.015-0.027,0.026-0.038c0.011-0.011,0.026-0.013,0.035-0.022
		c0.319-0.312,1.169-1.143,4.126-0.386C108.548,64.324,111.5,65.699,114.946,67.788z M120.724,62.88c0-1.348,0.15-2.426,0.324-3.1
		c0.624,0.174,1.566,0.529,2.833,1.272c2.526,1.453,5.087,3.693,7.417,6.501c5.667,6.74,9.479,15.882,9.479,22.752
		c0,1.353-0.153,2.435-0.33,3.107c-0.635-0.174-1.599-0.539-2.916-1.309c-0.132-0.072-0.255-0.173-0.386-0.25
		c-0.686-9.535-3.097-16.063-7.974-21.491c-2.19-2.451-4.984-4.742-8.421-6.979C120.745,63.219,120.724,63.043,120.724,62.88z
		 M93.026,124.053c0.016,0.078,0.035,0.158,0.058,0.238c0.732,2.579,1.104,4.99,1.104,7.154c0,1.353-0.155,2.435-0.331,3.104
		c-0.419-0.117-1.005-0.335-1.735-0.686c-0.521-8.771-2.361-14.824-6.053-19.881c-2.73-3.798-6.518-7.116-11.941-10.47
		c0.035-1.096,0.15-2.022,0.3-2.601c0.631,0.172,1.582,0.53,2.873,1.283c0.862,0.49,1.62,1.007,2.417,1.649
		c2.53,1.904,5.006,4.562,7.181,7.711C89.642,115.429,91.811,119.858,93.026,124.053z M69.211,108.562
		c0.232,0.115,0.461,0.257,0.785,0.45c4.875,2.94,8.213,5.79,10.521,8.993c3.11,4.259,4.564,9.661,4.863,18.025
		c0.031,1.17,0.067,2.41,0.067,3.678c0,2.75-0.067,5.214-0.197,7.287c-0.38,5.11-1.222,6.578-1.542,6.873l-0.17,0.139
		c-0.003,0-0.003,0.003-0.004,0.006c-0.071,0.059-0.141,0.117-0.168,0.142l-6.519,5.994c0.084-1.72,0.122-3.586,0.131-5.633v-0.647
		c0-11.724-1.662-18.946-5.709-24.893c-2.81-4.256-6.969-7.955-13.096-11.646c-2.14-1.28-3.956-2.263-5.513-2.973
		c-1.302-0.616-2.523-1.085-3.695-1.465l8.067-7.529c0.01-0.011,0.014-0.023,0.023-0.032c0.011-0.011,0.024-0.013,0.035-0.021
		c0.281-0.275,0.94-0.905,2.962-0.637C62.237,104.978,65.25,106.247,69.211,108.562z M49.211,130.261
		c-3.339-1.934-6.697-2.812-9.752-2.648c0.453-5.9,1.777-7.77,2.63-8.349c0.066-0.045,0.144-0.106,0.224-0.171
		c1.315-0.694,3.936-0.183,7.46,1.483c1.359,0.621,2.953,1.481,4.865,2.63c5.216,3.14,8.681,6.174,10.935,9.583
		c3.23,4.749,4.548,10.855,4.548,21.079v0.635c-0.014,3.259-0.047,10.767-1.561,13.271l-0.597,0.56
		c-0.228,0.092-0.775,0.193-1.868-0.032c0.729-2.008,1.145-4.274,1.145-6.792C67.24,149.832,59.32,136.103,49.211,130.261z
		 M76.863,82.343c1.693-1.323,3.803-1.93,6.275-1.715c2.483,0.204,5.177,1.127,7.994,2.739c4.453,2.581,8.735,6.598,12.388,11.637
		c6.048,8.271,9.661,18.191,9.661,26.537c0,2.576-0.375,4.874-1.085,6.894c-0.083,0.169-0.137,0.338-0.185,0.52
		c-0.183,0.469-0.381,0.921-0.605,1.345c-0.011-0.252-0.024-0.498-0.051-0.696c-0.466-9.669-4.639-20.409-11.455-29.47
		c-4.142-5.471-8.959-9.894-13.938-12.793c-1.085-0.629-2.235-1.205-3.523-1.761c-2.317-0.994-4.584-1.559-6.773-1.789
		L76.863,82.343z M109.062,90.969c-1.655-2.283-3.463-4.333-5.338-6.24c2.215,1.615,4.028,3.231,5.469,4.948
		c2.065,2.433,3.512,5.196,4.476,8.647C112.319,95.785,110.776,93.312,109.062,90.969z M49.205,167.967
		c-0.812-0.469-1.63-1.023-2.445-1.661l1.953-1.952l1.954-1.955c0.028-0.003,0.054-0.019,0.082-0.021
		c0.519-0.072,1.015-0.212,1.489-0.404c0.097-0.043,0.188-0.089,0.283-0.134c0.475-0.226,0.932-0.49,1.342-0.839
		c1.555-1.32,2.409-3.391,2.409-5.83c0-4.65-3.031-9.918-7.068-12.265c-2.516-1.443-5.156-1.58-7.243-0.375
		c-2.081,1.205-3.274,3.549-3.274,6.437c0,0.61,0.051,1.231,0.15,1.854l-2.018,2.02c-1.45-3.479-2.246-7.039-2.246-10.187
		c0-3.672,1.107-6.431,3.05-7.571c1.954-1.162,4.928-0.755,8.158,1.109c7.916,4.579,14.605,16.171,14.605,25.317
		c0,2.828-0.628,5.086-1.833,6.543C55.891,171.312,51.133,169.078,49.205,167.967z M92.213,144.665
		c0.038-1.082,0.059-2.25,0.07-3.46c0.987,0.246,1.829,0.354,2.453,0.354c1.896,0,6.307-0.983,6.307-10.113
		c0-2.737-0.438-5.7-1.301-8.812c-0.016-0.08-0.038-0.163-0.06-0.246c-1.431-5.051-3.916-10.167-7.165-14.763
		c-2.567-3.715-5.568-6.916-8.58-9.179c-0.988-0.803-2.046-1.524-3.206-2.187c-3.327-1.945-5.761-2.353-7.215-2.353
		c-1.562,0-4.832,0.689-5.913,6.104c-1.121-0.512-2.188-0.935-3.194-1.267c0.496-2.101,1.294-3.878,2.371-5.156l0.462-0.525
		l0.26-0.291c2.851-2.707,7.159-3.024,12.126-0.895c0.912,0.395,1.854,0.85,2.788,1.393c4.198,2.444,8.319,6.247,11.911,10.996
		c5.917,7.863,9.685,17.457,10.1,25.899c0.051,0.444,0.046,0.862,0.046,1.28c0,4.001-0.854,7.344-2.571,9.851l-1.403,1.572
		C98.471,144.74,95.585,145.337,92.213,144.665z M137.324,103.188c0.031-1.044,0.048-2.233,0.053-3.605
		c1.693,0.622,3.059,0.836,3.983,0.836c1.888,0,6.272-0.983,6.272-10.113c0-8.493-4.353-19.157-11.075-27.147
		c-2.831-3.412-6.031-6.198-9.237-8.039c-3.326-1.944-5.742-2.353-7.181-2.353c-1.623,0-5.089,0.742-6.026,6.755
		c-1.127-0.56-2.201-1.044-3.208-1.433c0.479-2.303,1.317-4.241,2.437-5.614l0.648-0.712c3.351-3.348,8.828-3.207,15.021,0.369
		c3.353,1.951,6.68,4.774,9.631,8.171c7.542,8.631,12.419,20.409,12.419,30.004c0,4.033-0.867,7.423-2.509,9.802l-1.441,1.626
		C144.732,103.883,141.312,104.37,137.324,103.188z M157.854,89.19c-0.335-11.078-5.625-23.762-14.043-33.391
		c-3.481-4.011-7.301-7.238-11.364-9.599c-3.511-2.033-6.974-3.196-10.244-3.551l1.323-1.472c3.372-2.604,8.533-2.241,14.229,1.05
		c2.676,1.549,5.295,3.645,7.786,6.23c0.099,0.104,0.203,0.201,0.316,0.288c1.96,2.026,3.806,4.312,5.479,6.793
		c5.303,7.868,8.466,17.162,8.466,24.862C159.803,83.873,159.128,86.826,157.854,89.19z" fill="#c13a3a" class="color000 svgShape"></path></svg></g></svg>