<svg  d="1729554403" data-name="Layer 1" xmlns="http://www.w3.org/2000/svg" viewBox="0 0 200 200" class="svg u_1729554403" data-icon-custom="true" data-icon-name="quotesArtboard 1.svg" alt="Herbert's Meat Market | Reviews - Hempstead, NY"> <title id="1362315408">quotesArtboard 1</title> 
 <path fill="white" d="M112.34,176.46c5.44-5.78,10.31-11,14.69-16.73,9.64-12.52,17.79-25.83,21.85-41.31,1.51-5.76,1.53-5.76-4.17-6.77-21.62-3.84-36.88-21.47-37.29-43.05-.4-21.29,14.46-39.68,35.65-44.12,26.9-5.64,52.79,15.23,52.94,43,.12,22.54-6.9,43.09-18.59,62.13-9.91,16.13-22.37,29.83-39,39.3A54.65,54.65,0,0,1,112.34,176.46Z" id="1377362547"></path> 
 <path fill="white" d="M9.34,176.07c3.24-3.59,6.47-7,9.5-10.56,11.26-13.27,20.71-27.61,25.88-44.42.67-2.16,1-4.42,1.64-6.6.5-1.76.07-2.39-1.87-2.57C24.84,110,9.44,96.61,5.1,77.67A44.29,44.29,0,0,1,91,56.29c2.6,9.68,1.83,19.45,0,29.06-6.23,32.06-21.84,58.53-48,78.36C34.13,170.41,24.22,175,13,176.22A6.5,6.5,0,0,1,9.34,176.07Z" id="1713610634"></path> 
</svg>