<svg id="SvgjsSvg1046" width="288" height="288" xmlns="http://www.w3.org/2000/svg" version="1.1" xmlns:xlink="http://www.w3.org/1999/xlink" xmlns:svgjs="http://svgjs.com/svgjs"><defs id="SvgjsDefs1047"></defs><g id="SvgjsG1048"><svg xmlns="http://www.w3.org/2000/svg" width="288" height="288" class="svg u_1313917499" data-icon-custom="true" data-icon-name="Ribs.svg" enable-background="new 0 0 200 200" viewBox="0 0 200 200"><path d="M77.378 75.031c.685 0 1.379-.173 2.016-.54l10.913-6.299c1.929-1.115 2.592-3.584 1.478-5.516-1.119-1.929-3.583-2.595-5.517-1.48l-10.913 6.299c-1.931 1.115-2.594 3.584-1.48 5.517C74.626 74.306 75.984 75.031 77.378 75.031zM63.74 82.908c.685 0 1.379-.174 2.016-.541l2.726-1.573c1.931-1.117 2.594-3.585 1.48-5.518-1.114-1.928-3.581-2.595-5.518-1.478l-2.726 1.573c-1.931 1.117-2.593 3.585-1.479 5.518C60.985 82.182 62.344 82.908 63.74 82.908zM110.114 93.932c.688 0 1.382-.17 2.02-.539l10.909-6.3c1.931-1.117 2.594-3.585 1.477-5.518s-3.59-2.6-5.515-1.479l-10.91 6.303c-1.934 1.117-2.593 3.584-1.479 5.515C107.363 93.213 108.72 93.932 110.114 93.932zM96.477 101.807c.683 0 1.378-.176 2.014-.543l2.728-1.57c1.931-1.117 2.594-3.588 1.479-5.521-1.116-1.925-3.585-2.593-5.518-1.477l-2.728 1.571c-1.931 1.117-2.593 3.587-1.478 5.521C93.723 101.082 95.081 101.807 96.477 101.807zM142.853 112.83c.685 0 1.379-.17 2.017-.539l10.909-6.297c1.932-1.117 2.594-3.588 1.48-5.518-1.12-1.931-3.584-2.6-5.519-1.477l-10.909 6.297c-1.932 1.117-2.594 3.584-1.48 5.514C140.099 112.105 141.455 112.83 142.853 112.83zM129.211 120.705c.685 0 1.379-.17 2.013-.535l2.729-1.578c1.934-1.111 2.593-3.584 1.482-5.512-1.117-1.934-3.587-2.598-5.518-1.482l-2.729 1.574c-1.931 1.109-2.593 3.584-1.479 5.514C126.457 119.98 127.813 120.705 129.211 120.705z" fill="#c13a3a" class="color000 svgShape"></path><path d="M195.547,82.154c0.438-0.929,0.559-1.997,0.201-3.024c-2.356-6.819-8.988-10.9-19.708-12.138
			c-0.868-0.115-1.729,0.079-2.48,0.512l-10.307,5.951v-11.91c0-0.093-0.048-0.17-0.054-0.262c-0.022-0.354-0.051-0.71-0.171-1.059
			c-0.019-0.063-0.057-0.117-0.078-0.18c-0.022-0.052-0.045-0.1-0.066-0.15c-2.464-6.613-9.029-10.596-19.573-11.809
			c-0.874-0.115-1.729,0.079-2.479,0.513l-10.313,5.952V42.71c0.003-0.001,0-0.003,0-0.003v-0.065c0-0.088-0.045-0.162-0.051-0.249
			c-0.022-0.358-0.048-0.719-0.171-1.073c-0.021-0.063-0.06-0.117-0.078-0.178c-0.022-0.054-0.045-0.101-0.069-0.151
			c-2.468-6.611-9.036-10.596-19.573-11.809c-0.871-0.113-1.729,0.079-2.48,0.513l-15.91,9.184
			c-5.204-2.622-10.46-5.212-15.547-7.625c-4.244-2.453-10.649-2.445-14.891,0L7.129,62.787c-2.634,1.519-4.147,3.846-4.236,6.404
			c0,0.027-0.016,0.051-0.016,0.079v0.03c0,0.041-0.019,0.079-0.019,0.12c0,0.039,0.018,0.076,0.019,0.115L2.85,86.821
			c0,0.063,0.032,0.11,0.035,0.17c0.047,2.076,1.038,3.966,2.839,5.458l0.016,16.697c0,0.018-0.008,0.037-0.01,0.062
			c-0.137,2.84,1.865,5.25,5.16,6.164c3.308,0.859,5.685,2.172,7.062,3.895c1.518,1.91,4.031,2.77,6.515,2.77
			c0.066,0,0.126-0.023,0.191-0.025c0.027,0,0.049,0.02,0.076,0.02c0.103,0,0.188-0.055,0.289-0.061
			c1.537-0.08,3.042-0.432,4.253-1.117l9.162-5.303v12.834c0,2.758,2.042,5.066,5.206,5.887c3.303,0.857,5.66,2.164,7.02,3.893
			c1.274,1.604,3.33,2.43,5.476,2.65c0.08,0.006,0.148,0.051,0.229,0.051c0.033,0,0.06-0.02,0.091-0.02
			c0.267,0.02,0.53,0.07,0.797,0.07c1.724,0,3.429-0.404,4.772-1.162l9.173-5.314l-0.016,12.746c0,0.033,0.019,0.064,0.021,0.104
			c0.004,2.707,1.958,4.994,5.16,5.887c3.286,0.846,5.66,2.158,7.05,3.887c1.519,1.918,4.034,2.773,6.518,2.773
			c0.129,0,0.249-0.041,0.377-0.045c0.038,0,0.068,0.023,0.105,0.023c0.147,0,0.271-0.07,0.414-0.086
			c1.412-0.117,2.789-0.441,3.906-1.076l13.816-7.988c4.362,2.9,8.72,5.855,13.209,8.973c2.124,1.213,4.771,1.818,7.418,1.824
			c0.012,0,0.019,0.006,0.031,0.006c0.006,0,0.013-0.002,0.021-0.002c2.66-0.004,5.313-0.613,7.418-1.838l54.668-31.52
			c2.502-1.475,3.929-3.691,4.121-6.07c0.024-0.17,0.104-0.326,0.104-0.506L195.547,82.154z M187.467,94.847
			c-1.887-1.296-3.792-2.58-5.701-3.861l5.704-3.294L187.467,94.847z M176.412,75.181c4.619,0.675,7.932,1.964,9.906,3.849
			l-19.763,11.41l-0.618-0.085c-4.31-0.707-7.42-1.969-9.304-3.761L176.412,75.181z M155.176,73.864
			c-1.489-0.915-2.987-1.825-4.495-2.73l4.495-2.593V73.864z M143.683,56.275c4.622,0.675,7.938,1.96,9.916,3.849l-19.772,11.413
			c-4.618-0.673-7.938-1.959-9.912-3.849l4.486-2.59l0,0L143.683,56.275z M122.44,54.767c-1.53-0.847-3.044-1.68-4.553-2.5
			l4.553-2.63V54.767z M110.947,37.374c4.619,0.674,7.938,1.964,9.919,3.849l-19.773,11.416c-4.622-0.673-7.939-1.964-9.916-3.852
			L110.947,37.374z M65.784,38.25c1.748-1.014,5.063-1.018,7.099,0.145c3.667,1.753,7.258,3.559,10.872,5.351l-0.213,0.123
			c-1.677,0.97-2.43,2.989-1.797,4.819c2.358,6.815,8.991,10.9,19.717,12.144c0.156,0.019,0.311,0.027,0.465,0.027
			c0.705,0,1.404-0.185,2.02-0.54l5.72-3.303c2.802,1.494,5.654,3.042,8.544,4.639l-1.935,1.117
			c-1.675,0.97-2.432,2.989-1.795,4.819c2.363,6.818,8.998,10.903,19.719,12.139c0.157,0.019,0.309,0.027,0.464,0.027
			c0.706,0,1.403-0.185,2.019-0.54l6.039-3.486c2.694,1.604,5.397,3.239,8.107,4.896l-1.826,1.054
			c-1.666,0.967-2.423,2.977-1.799,4.8c2.158,6.313,8.021,10.297,17.596,11.869l0.817,0.114c0.432,0.062,0.873,0.126,1.331,0.177
			c0.145,0.012,0.29,0.021,0.436,0.021c0.706,0,1.403-0.186,2.019-0.539l4.606-2.663c4.189,2.783,8.364,5.599,12.654,8.578
			l-54.041,31.199c-0.87,0.5-2.113,0.748-3.331,0.777c-0.028,0-0.054-0.016-0.082-0.016c-0.025,0-0.044,0.012-0.069,0.016
			c-1.192,0.006-2.341-0.189-3.048-0.594c-3.205-2.234-6.512-4.43-9.793-6.631l1.287-0.746c1.679-0.971,2.433-2.99,1.799-4.82
			c-2.36-6.818-8.995-10.902-19.722-12.141c-0.873-0.107-1.73,0.082-2.481,0.516l-3.87,2.232c-2.606-1.631-5.3-3.283-8.116-4.98
			c1.404-1.039,2.037-2.846,1.453-4.527c-2.362-6.818-8.997-10.907-19.722-12.137c-0.873-0.114-1.735,0.075-2.483,0.511
			l-3.556,2.051c-2.896-1.628-5.739-3.199-8.526-4.71c1.48-1.025,2.15-2.893,1.551-4.612c-2.365-6.819-8.998-10.905-19.72-12.139
			c-0.874-0.118-1.73,0.079-2.483,0.513l-4.993,2.882c-4.971-2.505-9.985-4.979-14.857-7.299L65.784,38.25z M90.719,134.23
			c-0.257,0.129-0.885,0.158-1.26,0.066c-1.699-2.025-3.998-3.68-6.891-4.938l17.467-10.084c4.621,0.672,7.94,1.959,9.915,3.85
			L90.719,134.23z M57.978,115.332c-0.254,0.129-0.879,0.158-1.256,0.066c-1.701-2.031-3.997-3.686-6.889-4.939l13.09-7.561
			c0.004,0,0.011-0.006,0.017-0.006l4.36-2.518c4.619,0.676,7.938,1.959,9.916,3.85L57.978,115.332z M25.247,96.431
			c-0.254,0.13-0.88,0.158-1.259,0.066c-1.702-2.028-3.998-3.682-6.894-4.938l17.47-10.085c4.621,0.675,7.937,1.964,9.915,3.851
			L25.247,96.431z M10.928,85.793l0.013-7.861c2.469,1.193,4.904,2.404,7.346,3.614L10.928,85.793z M13.816,107.818l-0.01-8.857
			c1.805,0.776,3.208,1.729,4.116,2.876c0.718,0.912,1.689,1.572,2.773,2.027v7.154C18.776,109.691,16.5,108.609,13.816,107.818z
			 M28.772,111.814v-8.188c0.16-0.078,0.352-0.109,0.503-0.197l14.919-8.614c2.811,1.495,5.66,3.045,8.545,4.638l-7.435,4.291
			c-0.155-0.043-0.311-0.057-0.47-0.084c-0.246-0.045-0.479-0.055-0.724-0.051c-0.267,0.002-0.522,0.016-0.786,0.072
			c-0.273,0.053-0.517,0.15-0.773,0.258c-0.146,0.064-0.303,0.07-0.443,0.152L28.772,111.814z M46.514,126.705v-8.857
			c1.817,0.781,3.231,1.738,4.146,2.895c0.459,0.582,1.042,1.035,1.669,1.43v6.977C50.66,128.154,48.707,127.35,46.514,126.705z
			 M60.405,131.359v-8.402c0.56-0.182,1.127-0.352,1.605-0.631l15.256-8.809c2.822,1.68,5.518,3.305,8.106,4.896l-6.912,3.992
			c-1.035-0.318-2.187-0.244-3.199,0.344L60.405,131.359z M79.262,145.609l0.011-8.852c1.808,0.781,3.213,1.734,4.121,2.883
			c0.765,0.969,1.809,1.664,2.983,2.117v7.209C84.405,147.555,82.048,146.422,79.262,145.609z M110.928,142.537
			c-0.164-0.104-0.347-0.125-0.514-0.205c-0.277-0.129-0.54-0.268-0.836-0.338c-0.246-0.053-0.486-0.041-0.735-0.051
			c-0.269-0.006-0.527-0.033-0.795,0.01c-0.294,0.049-0.559,0.174-0.839,0.287c-0.174,0.07-0.357,0.08-0.527,0.178l-12.229,7.072
			v-8.145c0.091-0.049,0.207-0.064,0.293-0.115l13.796-7.965c4.369,2.898,8.727,5.846,13.219,8.965
			c1.029,0.598,2.187,1.039,3.408,1.346v8.615C120.5,148.949,115.736,145.709,110.928,142.537z M187.252,121.129l-54.006,31.139
			v-8.695c1.221-0.303,2.379-0.748,3.41-1.342l50.808-29.33v8.082c0,0.004-0.003,0.006-0.003,0.006
			C187.403,121.033,187.338,121.078,187.252,121.129z" fill="#c13a3a" class="color000 svgShape"></path></svg></g></svg>