<svg id="SvgjsSvg1052" width="288" height="288" xmlns="http://www.w3.org/2000/svg" version="1.1" xmlns:xlink="http://www.w3.org/1999/xlink" xmlns:svgjs="http://svgjs.com/svgjs"><defs id="SvgjsDefs1053"></defs><g id="SvgjsG1054"><svg xmlns="http://www.w3.org/2000/svg" width="288" height="288" class="svg u_1384610216" data-icon-custom="true" data-icon-name="HotDog.svg" enable-background="new 0 0 200 200" viewBox="0 0 200 200"><path d="M186.189,118.625c-1.254-7.307-5.813-13.335-12.508-16.536c-15.461-7.395-29.087-16.774-40.86-28.018l19.277-19.277
			c1.34-1.337,1.34-3.503,0-4.84c-1.334-1.337-3.501-1.337-4.841,0L127.981,69.23c-11.244-11.772-20.623-25.399-28.015-40.86
			c-3.204-6.695-9.232-11.252-16.539-12.505c-7.291-1.25-14.466,1.032-19.694,6.265c-6.264,6.265-8.312,15.561-5.221,23.682
			c8.494,22.325,20.422,41.427,35.602,57.288l-9.703,9.703C73.168,101.032,63.79,87.405,56.395,71.944
			c-3.204-6.695-9.232-11.255-16.539-12.505c-7.291-1.25-14.466,1.032-19.694,6.265c-6.264,6.261-8.312,15.554-5.221,23.682
			c8.5,22.333,20.433,41.44,35.624,57.305c-0.04,0.037-0.091,0.048-0.131,0.088l-16.943,16.945c-1.337,1.337-1.337,3.503,0,4.841
			c0.666,0.668,1.543,1.003,2.418,1.003c0.877,0,1.754-0.335,2.423-1.003l16.942-16.945c0.041-0.04,0.051-0.091,0.086-0.131
			c15.865,15.188,34.973,27.121,57.307,35.623c2.515,0.957,5.141,1.42,7.753,1.42c5.836,0,11.607-2.316,15.932-6.641
			c5.231-5.229,7.516-12.406,6.267-19.694c-1.252-7.307-5.812-13.332-12.509-16.539c-15.46-7.392-29.087-16.773-40.857-28.015
			l9.703-9.702c15.859,15.177,34.96,27.1,57.286,35.599c2.512,0.958,5.138,1.423,7.751,1.423c5.833,0,11.607-2.315,15.932-6.643
			C185.155,133.088,187.438,125.91,186.189,118.625z M127.154,151.836c4.667,2.232,7.842,6.429,8.716,11.516
			c0.867,5.068-0.722,10.062-4.358,13.698c-4.357,4.365-10.8,5.796-16.408,3.664c-45.066-17.156-76.614-48.701-93.765-93.763
			c-2.131-5.609-0.693-12.048,3.667-16.407c3.635-3.637,8.63-5.222,13.696-4.359c5.087,0.872,9.286,4.048,11.516,8.714
			c7.74,16.185,17.565,30.442,29.346,42.752l-9.764,9.764c-0.059,0.062-0.08,0.143-0.136,0.206H58.909
			c-1.894,0-3.423,1.532-3.423,3.424c0,1.894,1.53,3.423,3.423,3.423h24.204c1.891,0,3.423-1.529,3.423-3.423
			c0-1.892-1.533-3.424-3.423-3.424h-3.838l5.129-5.129C96.714,134.272,110.972,144.096,127.154,151.836z M175.08,133.479
			c-4.361,4.359-10.794,5.804-16.404,3.661l0,0c-45.067-17.151-76.615-48.697-93.766-93.761c-2.134-5.607-0.695-12.046,3.664-16.408
			c2.984-2.986,6.884-4.591,10.986-4.591c0.896,0,1.803,0.078,2.712,0.234c5.087,0.873,9.286,4.049,11.516,8.712
			c7.74,16.184,17.563,30.443,29.343,42.753l-9.761,9.763c-0.064,0.062-0.083,0.143-0.14,0.208h-10.754
			c-1.891,0-3.423,1.531-3.423,3.423c0,1.893,1.533,3.423,3.423,3.423h24.206c1.889,0,3.424-1.531,3.424-3.423
			c0-1.892-1.535-3.423-3.424-3.423h-3.84l5.129-5.13c12.313,11.781,26.57,21.604,42.754,29.347
			c4.667,2.228,7.841,6.427,8.716,11.514C180.309,124.848,178.723,129.841,175.08,133.479z" fill="#c13a3a" class="color000 svgShape"></path><circle cx="77.06" cy="33.01" r="3.423" fill="#c13a3a" class="color000 svgShape"></circle><circle cx="169.044" cy="124.993" r="3.423" fill="#c13a3a" class="color000 svgShape"></circle><path d="M107.112 59.635c0-1.892-1.535-3.423-3.423-3.423H79.48c-1.888 0-3.423 1.531-3.423 3.423s1.535 3.423 3.423 3.423h24.209C105.577 63.058 107.112 61.527 107.112 59.635zM152.099 104.627h-24.206c-1.888 0-3.423 1.529-3.423 3.423 0 1.891 1.535 3.424 3.423 3.424h24.206c1.892 0 3.424-1.533 3.424-3.424C155.522 106.156 153.99 104.627 152.099 104.627zM35.911 79.001c1.334-1.337 1.334-3.505 0-4.84-1.337-1.337-3.506-1.337-4.843 0-1.337 1.335-1.337 3.503 0 4.84C32.405 80.339 34.574 80.339 35.911 79.001z" fill="#c13a3a" class="color000 svgShape"></path><circle cx="125.472" cy="168.564" r="3.423" fill="#c13a3a" class="color000 svgShape"></circle><path d="M63.541 103.209c0-1.894-1.535-3.423-3.423-3.423H35.909c-1.888 0-3.423 1.529-3.423 3.423 0 1.891 1.535 3.424 3.423 3.424h24.209C62.006 106.633 63.541 105.1 63.541 103.209zM80.898 151.619c0 1.891 1.535 3.423 3.423 3.423h24.209c1.888 0 3.423-1.532 3.423-3.423s-1.535-3.424-3.423-3.424H84.321C82.433 148.195 80.898 149.729 80.898 151.619z" fill="#c13a3a" class="color000 svgShape"></path></svg></g></svg>