<svg id="SvgjsSvg1062" width="288" height="288" xmlns="http://www.w3.org/2000/svg" version="1.1" xmlns:xlink="http://www.w3.org/1999/xlink" xmlns:svgjs="http://svgjs.com/svgjs"><defs id="SvgjsDefs1063"></defs><g id="SvgjsG1064"><svg xmlns="http://www.w3.org/2000/svg" width="288" height="288" class="svg u_1104272366" data-icon-custom="true" data-icon-name="Steak1.svg" enable-background="new 0 0 200 200" viewBox="0 0 200 200"><path d="M184.978,99.951c0.125-1.273,0.128-2.61,0-4.134v-27.39v-3.695l-0.015-0.312c-1.194-14.225-15.647-25.704-27.541-32.817
			c-9.048-5.48-19.771-10.266-30.999-13.836c-18.147-5.835-34.406-7.438-43.485-4.292c-3.759,1.301-7.905,3.932-12.65,8.032
			l-1.137,0.959C62.838,28.17,55.718,36.33,48.558,46.065c-5.882,8.054-11.566,16.86-16.438,25.461
			c-5.48,9.671-10.01,19.109-13.106,27.302c-2.608,6.96-4.094,12.898-4.559,17.892c-0.148,0.412-0.25,0.852-0.245,1.316
			l0.489,27.867c0,0.023-0.018,0.047-0.018,0.074v0.137c0,0.033,0.021,0.062,0.023,0.098l0.192,11.027
			c0,0.137,0.067,0.254,0.084,0.387c0.012,0.105-0.02,0.201,0.003,0.303c2.259,10.721,9.292,19.721,19.291,24.701
			c5.393,2.684,11.202,4.029,17.017,4.029c5.506,0,11.019-1.207,16.174-3.627c24.785-11.691,59.61-29.252,84.758-46.533
			c11.452-7.83,19.969-15.006,25.31-21.32c3.994-4.713,6.335-8.99,7.204-13.361c0.062-0.344,0.099-0.635,0.143-0.934h0.099V99.951z
			 M21.682,119.357c0.079-4.486,1.526-10.51,4.3-17.906c2.957-7.835,7.318-16.914,12.612-26.254
			c4.736-8.361,10.26-16.917,15.967-24.73c6.463-8.792,12.848-16.199,18.535-21.519l1.07-0.945c4.39-3.92,8.158-6.44,11.205-7.497
			c7.501-2.599,22.358-0.935,38.785,4.349c10.688,3.399,20.857,7.93,29.429,13.124c14.647,8.759,23.146,18.316,23.951,26.925v3.3
			c-0.029,0.256-0.076,0.51-0.151,0.913c-0.477,2.419-1.98,5.25-4.463,8.405c-4.667,5.892-12.49,12.681-23.259,20.177
			c-8.19,5.721-17.931,11.792-28.955,18.051c-9.426,5.379-20.026,11.057-31.487,16.863c-7.684,3.857-15.61,7.723-24.934,12.156
			c-5.983,2.826-12.618,3.6-19.207,2.227c-9.859-1.994-17.863-8.551-21.424-17.562c-0.564-1.396-1.035-2.945-1.404-4.627
			c-0.195-0.854-0.349-1.713-0.465-2.611L21.682,119.357z M177.387,100.637c-0.559,2.785-2.419,6.059-5.536,9.736
			c-4.91,5.805-12.929,12.529-23.837,19.988c-24.745,17.004-59.189,34.365-83.719,45.938c-8.521,3.998-18.252,3.879-26.704-0.332
			c-7.876-3.918-13.42-10.961-15.264-19.334l-0.268-15.396c5.274,6.594,12.804,11.289,21.526,13.057
			c2.617,0.543,5.242,0.811,7.85,0.811c5.524,0,10.963-1.209,16.037-3.605c9.382-4.463,17.354-8.35,25.099-12.24
			c11.583-5.865,22.291-11.6,31.818-17.037c11.217-6.367,21.151-12.564,29.53-18.414c10.519-7.327,18.424-14.107,23.614-20.211
			v16.141C177.506,99.989,177.459,100.242,177.387,100.637z" fill="#c13a3a" class="color000 svgShape"></path><path d="M25.476,121.719c0.102,0.77,0.236,1.508,0.419,2.322c0.323,1.469,0.729,2.803,1.235,4.053
			c3.085,7.811,10.092,13.52,18.729,15.268c1.837,0.377,3.704,0.57,5.55,0.57c3.945,0,7.736-0.848,11.269-2.52
			c9.318-4.428,17.209-8.273,24.847-12.111c11.379-5.766,21.93-11.412,31.353-16.789c10.946-6.221,20.591-12.229,28.661-17.867
			c13.04-9.079,19.401-15.566,22.451-19.414c2.869-3.642,3.547-5.855,3.744-6.833l0.079-3.101l-0.032-0.48
			c-1.276-9.83-14.433-19.058-22.146-23.669c-8.188-4.957-18.36-9.49-28.635-12.756c-10.586-3.406-21.023-5.358-28.638-5.358
			c-4.067,0-6.478,0.542-7.777,0.993c-1.759,0.604-4.914,2.265-9.929,6.738l-1.07,0.949c-5.489,5.134-11.714,12.371-18.014,20.933
			C51.936,60.37,46.49,68.801,41.833,77.029c-5.198,9.172-9.472,18.061-12.365,25.719c-3.21,8.559-3.98,13.676-4.062,16.643
			l0.038,1.912L25.476,121.719z M58.917,134.904c-3.576,1.551-7.55,1.994-11.568,1.162c-4.219-0.852-7.85-3.016-10.435-6.039
			l10.661-12.562l18.441,9.635L58.917,134.904z M52.509,111.645l14.758-17.392l19.407,10.152L71.197,121.41L52.509,111.645z
			 M107.359,81.682L91.854,98.715L72.203,88.432l14.778-17.422L107.359,81.682z M91.918,65.192l14.781-17.423l21.34,11.191
			l-15.502,17.031L91.918,65.192z M84.173,122.652c-1.785,0.9-3.593,1.799-5.422,2.707l-0.732-0.385l15.473-17l9.367,4.902
			C96.931,116.078,90.711,119.344,84.173,122.652z M115.194,106.045c-1.459,0.832-2.991,1.68-4.506,2.529l-12.017-6.291
			l15.502-17.032l19.029,9.967C127.696,98.727,121.719,102.338,115.194,106.045z M143.28,88.54c-0.939,0.657-1.975,1.337-2.96,2.004
			l-20.968-10.982l15.502-17.03l24.762,12.986C156.16,78.848,150.99,83.171,143.28,88.54z M166.37,65.574v1.57
			c-0.148,0.354-0.604,1.265-1.616,2.657l-24.722-12.959l8.226-9.035C160.66,55.317,165.751,62,166.37,65.574z M117.866,34.606
			c0.954,0.282,1.907,0.567,2.87,0.876c7.274,2.312,14.47,5.281,20.863,8.583l-8.382,9.205l-21.585-11.315L117.866,34.606z
			 M94.363,30.478c4.303,0,9.679,0.715,15.525,2.031l-5.01,5.903L90.29,30.764C91.156,30.619,92.465,30.478,94.363,30.478z
			 M80.597,37.22l1.003-0.89c0.442-0.396,0.84-0.731,1.241-1.07l17.104,8.968L85.165,61.652l-17.947-9.399
			C71.962,46.171,76.544,41.012,80.597,37.22z M62.699,58.29l17.528,9.182L65.443,84.895l-14.996-7.847
			C54.209,70.676,58.376,64.291,62.699,58.29z M46.767,83.524l13.74,7.19l-14.758,17.397l-8.6-4.492
			C39.562,97.52,42.842,90.67,46.767,83.524z M34.623,110.697l6.189,3.232l-7.547,8.896c-0.035-0.139-0.076-0.262-0.104-0.406
			c-0.122-0.523-0.209-0.998-0.279-1.484l-0.035-1.506C32.881,118.32,33.143,115.57,34.623,110.697z" fill="#c13a3a" class="color000 svgShape"></path></svg></g></svg>