<svg xmlns="http://www.w3.org/2000/svg" xmlns:xlink="http://www.w3.org/1999/xlink" version="1.1" width="200" height="200" enable-background="new 0 0 200 200" xml:space="preserve" data-icon-custom="true" data-icon-name="Tbone.svg" alt="Herbert's Meat Market | Cookin' Good - Hempstead, NY"><rect id="backgroundrect" width="100%" height="100%" x="0" y="0" fill="none" stroke="none"/>  
<g class="currentLayer" style=""><title>Layer 1</title><g id="1774647567" class="selected" fill-opacity="1" fill="#c13a3a"> <g id="1564562677" fill="#c13a3a"> <path d="M193.433,143.327c0.631-1.565,0.718-3.272,0.321-4.986l0.121-24.294c2.205-12.368-25.099-28.742-63.559-50.259    l-7.274-4.08c-17.425-9.828-45.338-8.161-62.259-0.889C48.396,64.153,12.538,80.485,5.375,93.597    c-0.811,0.732-1.336,1.762-1.33,2.937l0.198,27.247c-0.321,1.423-0.235,2.839,0.297,4.132c0.012,0.021,0.028,0.043,0.037,0.068    c0.006,0.012,0.012,0.021,0.019,0.037c3.652,8.582,21.272,8.833,54.62,8.533c14.796-0.124,30.105-0.27,44.197,0.739    c19.729,1.397,36.678,5.956,50.296,9.621c10.163,2.734,18.906,5.085,25.717,5.085c6.634,0,11.432-2.242,13.937-8.515    c0.024-0.05,0.05-0.099,0.071-0.148C193.433,143.333,193.433,143.33,193.433,143.327z M63.917,66.095    c16.992-7.314,41.772-7.085,55.238,0.51l7.296,4.095c14.46,8.088,56.597,31.665,59.584,40.436    c-0.009,0.111-0.062,0.197-0.062,0.312l-0.01,1.49c-2.533,5.725-12.17,3.461-30.217-1.397c-13.939-3.746-31.287-8.413-51.759-9.87    c-7.961-0.568-16.454-0.767-24.87-0.822c-0.019,0-0.037-0.009-0.059-0.009c0,0-0.034,0.009-0.053,0.009    c-1.516-0.006-3.034-0.021-4.541-0.021c-5.236,0-10.401,0.046-15.331,0.093c-17.604,0.157-44.067,0.402-47.125-3.514    C13.37,92.544,35.468,78.335,63.917,66.095z M98.866,109.33v19.801c-5.19-0.272-10.488-0.452-15.848-0.52v-19.807    C88.393,108.872,93.679,109.052,98.866,109.33z M106.783,109.875c5.505,0.501,10.794,1.215,15.835,2.091v19.694    c-5.041-0.844-10.32-1.533-15.835-2.01V109.875z M130.536,132.354v-18.885c5.636,1.185,10.902,2.489,15.836,3.779v19.537    c-4.979-1.28-10.312-2.552-15.984-3.695C130.435,132.842,130.536,132.613,130.536,132.354z M12.031,106.113    c3.811,1.274,8.994,1.992,15.563,2.382v19.77c-7.744-0.451-13.788-1.336-15.424-3.013L12.031,106.113z M35.512,128.574v-19.776    c4.732,0.108,10.008,0.124,15.848,0.097v19.797C46.176,128.716,40.705,128.704,35.512,128.574z M59.277,128.636v-19.797    c5.239-0.053,10.535-0.084,15.823-0.081v19.804C69.706,128.559,64.358,128.586,59.277,128.636z M154.289,138.87v-19.522    c5.777,1.556,11.085,2.96,15.836,3.869v19.646c-4.012-0.848-8.777-2.098-14.363-3.601C155.285,139.136,154.771,139,154.289,138.87    z M178.042,144.017v-19.798c0.458,0.019,0.929,0.053,1.37,0.053c2.419,0,4.587-0.309,6.498-0.989l-0.074,14.997    c-0.009,0.099,0,0.198-0.003,0.297l-0.009,2.332C184.624,143.302,182.066,144.192,178.042,144.017z" id="1353064586" fill="#c13a3a"/> 
</g> 
 <g id="1589167809" fill="#c13a3a"> <path d="M51.774,91.882c4.763-3.097,10.63-6.566,16.503-9.685c8.047-0.973,35.066,6.261,51.382,11.378    c0.396,0.124,0.794,0.183,1.188,0.183c1.686,0,3.244-1.083,3.776-2.773c0.655-2.087-0.508-4.31-2.592-4.964    c-3.137-0.983-23.958-7.421-39.901-10.356c4.877-1.93,8.973-3.02,11.311-2.605c2.153,0.413,4.213-1.033,4.608-3.183    c0.393-2.15-1.033-4.214-3.183-4.604c-12.417-2.281-41.673,16.238-47.41,19.975c-1.831,1.191-2.351,3.646-1.157,5.479    c0.758,1.163,2.026,1.797,3.322,1.797C50.36,92.524,51.109,92.315,51.774,91.882z" id="1693761410" fill="#c13a3a"/> 
</g> 
</g></g></svg>