<svg id="SvgjsSvg1068" width="288" height="288" xmlns="http://www.w3.org/2000/svg" version="1.1" xmlns:xlink="http://www.w3.org/1999/xlink" xmlns:svgjs="http://svgjs.com/svgjs"><defs id="SvgjsDefs1069"></defs><g id="SvgjsG1070"><svg xmlns="http://www.w3.org/2000/svg" width="288" height="288" class="svg u_1040405519" data-icon-custom="true" data-icon-name="Turkey.svg" enable-background="new 0 0 200 200" viewBox="0 0 200 200"><path d="M189.243,60.279c-1.955-1.957-5.229-3.51-8.529-3.856c-0.346-3.301-1.899-6.576-3.858-8.535
			c-4.035-4.033-10.601-4.033-14.635,0c-1.953,1.957-3.032,4.557-3.032,7.318c0,1.448,0.312,2.843,0.879,4.131l-9.598,9.597
			c-5.752-1.062-12.164-0.444-18.652,1.761c-0.136-3.52-0.823-6.82-2.047-9.799l6.049-6.049c1.283,0.557,2.67,0.866,4.109,0.866
			c2.764,0,5.361-1.081,7.314-3.038c1.958-1.954,3.038-4.554,3.038-7.314c0-2.762-1.08-5.361-3.035-7.315
			c-2.095-2.096-5.389-3.514-8.527-3.839c-0.342-3.308-1.902-6.592-3.863-8.553c-4.038-4.033-10.598-4.033-14.633,0
			c-1.955,1.954-3.035,4.554-3.035,7.314c0,1.453,0.316,2.853,0.886,4.144l-8.84,8.837C96.822,44.57,82.4,50.509,71.1,61.81
			c-0.656,0.658-1.271,1.345-1.891,2.026C33.258,70.755,7.29,98.431,7.29,130.131c0,39.921,40.077,45.304,79.282,45.304
			c39.202,0,79.283-5.383,79.283-45.304c0-4.471-0.543-8.89-1.552-13.178c6.314-10.849,8.173-22.317,5.173-31.545l8.342-8.342
			c1.31,0.566,2.707,0.87,4.111,0.87c2.648,0,5.3-1.007,7.32-3.023c1.953-1.958,3.032-4.557,3.032-7.319
			C192.281,64.833,191.202,62.233,189.243,60.279z M125.564,30.991c1.091-1.094,2.861-1.087,3.952,0
			c1.643,1.645,2.121,4.933,1.546,5.505c0,0,0,0.001,0,0.003c-0.006,0.004-0.012,0.006-0.018,0.012
			c-0.682,0.678-1.098,1.662-1.098,2.643c0,0.328,0.109,0.628,0.191,0.935c0.045,0.17,0.039,0.347,0.104,0.51
			c0.029,0.069,0.095,0.121,0.127,0.188c0.18,0.375,0.387,0.742,0.699,1.051c0.274,0.276,0.607,0.447,0.935,0.62
			c0.106,0.056,0.186,0.152,0.295,0.196c0.46,0.189,0.947,0.288,1.437,0.288s0.979-0.1,1.439-0.289
			c0.212-0.085,0.378-0.255,0.572-0.379c0.221-0.143,0.466-0.243,0.66-0.438c0.054-0.056,0.366-0.214,1.045-0.214
			c1.483,0,3.479,0.789,4.456,1.762c0.528,0.531,0.823,1.231,0.823,1.977c0,0.745-0.295,1.445-0.826,1.976
			c-1.05,1.051-2.854,1.054-3.917,0.021c-0.003-0.003-0.006-0.007-0.006-0.01c-0.374-0.372-0.805-0.647-1.262-0.832
			c-1.369-0.56-2.997-0.289-4.106,0.822c-0.035,0.034-0.044,0.08-0.076,0.115l-3.431,3.432c-4.188-2.178-6.662-4.462-7.818-6.31
			l4.306-4.308c1.475-1.475,1.475-3.864,0-5.339c-0.023-0.025-0.056-0.032-0.082-0.056c-0.49-0.522-0.773-1.189-0.773-1.903
			C124.738,32.222,125.033,31.522,125.564,30.991z M109.915,53.657c0.111,0.021,0.215-0.016,0.327-0.007
			c0.115,0.011,0.224,0.066,0.339,0.066c0.145,0,0.28-0.066,0.425-0.083c0.242-0.028,0.466-0.063,0.693-0.134
			c0.227-0.071,0.428-0.171,0.64-0.283c0.23-0.124,0.437-0.255,0.638-0.421c0.085-0.072,0.191-0.101,0.271-0.18l2.628-2.628
			c1.803,2.324,4.404,4.508,7.675,6.454l-0.994,0.997c-0.059,0.055-0.076,0.131-0.127,0.189c-0.177,0.201-0.301,0.42-0.427,0.649
			c-0.115,0.204-0.236,0.394-0.313,0.61c-0.076,0.233-0.1,0.469-0.136,0.712c-0.029,0.237-0.07,0.464-0.059,0.704
			c0.012,0.23,0.077,0.45,0.133,0.678c0.062,0.257,0.121,0.501,0.239,0.742c0.032,0.069,0.029,0.146,0.067,0.212
			c1.342,2.413,2.127,5.254,2.33,8.396c-12.827-5.96-27.465-8.76-42.248-8.044C91.034,55.461,101.443,52.143,109.915,53.657z
			 M86.571,167.884c-43.055,0-71.731-6.418-71.731-37.753c0-28.418,23.958-53.285,56.967-59.141c0,0,0.004,0,0.006,0
			c4.827-0.841,9.791-1.266,14.758-1.266c11.693,0,23.039,2.398,33.235,6.917c-0.194,0.125-0.386,0.252-0.578,0.382
			c-0.51,0.342-1.035,0.653-1.536,1.013c-0.92,0.662-1.805,1.388-2.693,2.109c-0.386,0.314-0.79,0.596-1.168,0.922
			c-1.253,1.071-2.475,2.2-3.654,3.39c-1.082,1.084-2.12,2.198-3.105,3.334c-6.899,7.964-11.332,17.151-12.61,26.259v0.003
			c-0.001,0.006-0.003,0.015-0.004,0.021c-1.295,9.647,1.164,18.134,6.925,23.896c0.735,0.737,1.702,1.106,2.669,1.106
			c0.965,0,1.93-0.369,2.667-1.106c1.475-1.475,1.475-3.863,0-5.339c-4.053-4.058-5.752-10.293-4.78-17.531
			c1.219-8.671,6.166-17.895,13.59-25.315c4.168-4.2,8.846-7.555,13.9-9.974c0.104-0.052,0.204-0.108,0.305-0.166
			c7.459-3.539,14.906-4.594,20.982-2.954c0.162,0.044,0.318,0.009,0.48,0.031c0.168,0.024,0.33,0.099,0.501,0.099
			c0.083,0,0.163-0.043,0.248-0.049c0.26-0.018,0.495-0.077,0.74-0.145c0.216-0.059,0.425-0.118,0.628-0.217
			c0.254-0.121,0.467-0.28,0.685-0.454c0.118-0.092,0.26-0.134,0.366-0.242l2.749-2.746c1.593,2.564,3.904,5.135,6.81,7.313
			l-1.454,1.457c-0.018,0.013-0.021,0.034-0.035,0.049c-0.221,0.23-0.365,0.509-0.519,0.783c-0.089,0.155-0.219,0.289-0.283,0.453
			c-0.089,0.223-0.092,0.463-0.136,0.697c-0.048,0.242-0.13,0.475-0.13,0.72c0.003,0.174,0.076,0.345,0.1,0.521
			c0.048,0.313,0.083,0.627,0.207,0.922c0.009,0.019,0.006,0.04,0.015,0.059c3.365,7.573,1.607,18.474-4.593,28.449
			c-0.012,0.018-0.009,0.035-0.018,0.054c-0.165,0.276-0.244,0.59-0.336,0.896c-0.047,0.165-0.142,0.318-0.168,0.483
			c-0.026,0.168,0.021,0.342,0.021,0.514c-0.006,0.324-0.023,0.643,0.056,0.955c0.003,0.018-0.003,0.035,0.003,0.057
			c1.095,4.129,1.652,8.426,1.652,12.779C158.304,161.466,129.626,167.884,86.571,167.884z M183.904,69.573
			c-1.085,1.081-2.86,1.088-3.952,0c-1.475-1.473-3.863-1.473-5.338,0c-0.018,0.019-0.023,0.043-0.042,0.061l-5.256,5.257
			c-3.403-2.281-5.653-5.241-6.647-7.477l4.878-4.883c0.006-0.004,0.012-0.006,0.018-0.01s0.006-0.012,0.012-0.016v-0.001
			c1.476-1.475,1.476-3.864,0-5.338c-0.012-0.015-0.032-0.02-0.047-0.033c-0.504-0.526-0.79-1.202-0.79-1.926
			c0-0.745,0.292-1.448,0.825-1.979c1.092-1.091,2.861-1.091,3.949,0c1.623,1.622,2.109,4.83,1.569,5.468
			c-0.006,0.006-0.015,0.007-0.021,0.013c-0.271,0.288-0.466,0.639-0.643,0.993c-0.658,1.287-0.52,2.824,0.397,3.995
			c0.092,0.12,0.142,0.264,0.245,0.374c0.36,0.361,0.778,0.634,1.236,0.818c0.46,0.19,0.946,0.288,1.436,0.288
			c0.49,0,0.979-0.099,1.439-0.288c0.068-0.028,0.118-0.092,0.184-0.124c0.371-0.18,0.737-0.385,1.047-0.694
			c0.581-0.578,3.857-0.096,5.5,1.548c0.534,0.531,0.826,1.231,0.826,1.976S184.438,69.043,183.904,69.573z" fill="#c13a3a" class="color000 svgShape"></path><path d="M70.811,81.109c-24.781,4.388-42.77,23.391-42.77,45.188c0,2.085,1.69,3.775,3.775,3.775c2.085,0,3.775-1.69,3.775-3.775
			c0-18.127,15.365-34.004,36.536-37.755c2.053-0.361,3.423-2.322,3.06-4.373C74.825,82.117,72.881,80.73,70.811,81.109z" fill="#c13a3a" class="color000 svgShape"></path></svg></g></svg>